<svg width="5723" height="5976" viewBox="0 0 5723 5976" fill="none" xmlns="http://www.w3.org/2000/svg">
<rect x="26" y="342" width="50" height="2500" fill="black"/>
<rect x="276" y="342" width="50" height="2500" fill="black"/>
<rect x="526" y="342" width="50" height="2500" fill="black"/>
<rect x="776" y="342" width="50" height="2500" fill="black"/>
<rect x="1026" y="342" width="50" height="2500" fill="black"/>
<rect x="1276" y="342" width="50" height="2500" fill="black"/>
<rect x="1526" y="342" width="50" height="2500" fill="black"/>
<rect x="2558" y="353" width="50" height="2500" fill="#CFCFCF"/>
<rect x="2908" y="353" width="50" height="2500" fill="#CFCFCF"/>
<rect x="3258" y="353" width="50" height="2500" fill="#CFCFCF"/>
<rect x="3608" y="353" width="50" height="2500" fill="#CFCFCF"/>
<rect x="2193" y="353" width="50" height="2500" fill="#CFCFCF"/>
<circle cx="4555" cy="372" r="20" fill="#8626E2"/>
<circle cx="4455" cy="422" r="20" fill="#8626E2"/>
<circle cx="4355" cy="472" r="20" fill="#8626E2"/>
<circle cx="4255" cy="522" r="20" fill="#8626E2"/>
<circle cx="4155" cy="572" r="20" fill="#8626E2"/>
<circle cx="4055" cy="622" r="20" fill="#8626E2"/>
<circle cx="3955" cy="672" r="20" fill="#8626E2"/>
<circle cx="5105" cy="372" r="20" fill="#8626E2"/>
<circle cx="5005" cy="422" r="20" fill="#8626E2"/>
<circle cx="4905" cy="472" r="20" fill="#8626E2"/>
<circle cx="4805" cy="521" r="20" fill="#8626E2"/>
<circle cx="4705" cy="572" r="20" fill="#8626E2"/>
<circle cx="4605" cy="622" r="20" fill="#8626E2"/>
<circle cx="4505" cy="672" r="20" fill="#8626E2"/>
<circle cx="4405" cy="722" r="20" fill="#8626E2"/>
<circle cx="4305" cy="772" r="20" fill="#8626E2"/>
<circle cx="4205" cy="822" r="20" fill="#8626E2"/>
<circle cx="4105" cy="872" r="20" fill="#8626E2"/>
<circle cx="4005" cy="922" r="20" fill="#8626E2"/>
<circle cx="5655" cy="372" r="20" fill="#8626E2"/>
<circle cx="5555" cy="422" r="20" fill="#8626E2"/>
<circle cx="5455" cy="472" r="20" fill="#8626E2"/>
<circle cx="5355" cy="522" r="20" fill="#8626E2"/>
<circle cx="5255" cy="573" r="20" fill="#8626E2"/>
<circle cx="5156" cy="622" r="20" fill="#8626E2"/>
<circle cx="5055" cy="672" r="20" fill="#8626E2"/>
<circle cx="4955" cy="722" r="20" fill="#8626E2"/>
<circle cx="4856" cy="772" r="20" fill="#8626E2"/>
<circle cx="4755" cy="822" r="20" fill="#8626E2"/>
<circle cx="4655" cy="872" r="20" fill="#8626E2"/>
<circle cx="4555" cy="922" r="20" fill="#8626E2"/>
<circle cx="4455" cy="972" r="20" fill="#8626E2"/>
<circle cx="4355" cy="1022" r="20" fill="#8626E2"/>
<circle cx="4255" cy="1072" r="20" fill="#8626E2"/>
<circle cx="4155" cy="1122" r="20" fill="#8626E2"/>
<circle cx="4055" cy="1172" r="20" fill="#8626E2"/>
<circle cx="3955" cy="1222" r="20" fill="#8626E2"/>
<circle cx="3955" cy="1771" r="20" fill="#8626E2"/>
<circle cx="4055" cy="1722" r="20" fill="#8626E2"/>
<circle cx="4155" cy="1672" r="20" fill="#8626E2"/>
<circle cx="4255" cy="1622" r="20" fill="#8626E2"/>
<circle cx="4355" cy="1572" r="20" fill="#8626E2"/>
<circle cx="4455" cy="1522" r="20" fill="#8626E2"/>
<circle cx="4555" cy="1472" r="20" fill="#8626E2"/>
<circle cx="4655" cy="1422" r="20" fill="#8626E2"/>
<circle cx="4755" cy="1372" r="20" fill="#8626E2"/>
<circle cx="4855" cy="1322" r="20" fill="#8626E2"/>
<circle cx="4955" cy="1272" r="20" fill="#8626E2"/>
<circle cx="5055" cy="1222" r="20" fill="#8626E2"/>
<circle cx="5155" cy="1172" r="20" fill="#8626E2"/>
<circle cx="5255" cy="1122" r="20" fill="#8626E2"/>
<circle cx="5355" cy="1072" r="20" fill="#8626E2"/>
<circle cx="5455" cy="1022" r="20" fill="#8626E2"/>
<circle cx="5555" cy="972" r="20" fill="#8626E2"/>
<circle cx="5655" cy="922" r="20" fill="#8626E2"/>
<circle cx="5605" cy="672" r="20" fill="#8626E2"/>
<circle cx="5505" cy="722" r="20" fill="#8626E2"/>
<circle cx="5405" cy="772" r="20" fill="#8626E2"/>
<circle cx="5305" cy="822" r="20" fill="#8626E2"/>
<circle cx="5205" cy="872" r="20" fill="#8626E2"/>
<circle cx="5105" cy="922" r="20" fill="#8626E2"/>
<circle cx="5005" cy="972" r="20" fill="#8626E2"/>
<circle cx="4905" cy="1022" r="20" fill="#8626E2"/>
<circle cx="4805" cy="1072" r="20" fill="#8626E2"/>
<circle cx="4705" cy="1122" r="20" fill="#8626E2"/>
<circle cx="4605" cy="1172" r="20" fill="#8626E2"/>
<circle cx="4505" cy="1222" r="20" fill="#8626E2"/>
<circle cx="4405" cy="1272" r="20" fill="#8626E2"/>
<circle cx="4305" cy="1322" r="20" fill="#8626E2"/>
<circle cx="4205" cy="1372" r="20" fill="#8626E2"/>
<circle cx="4105" cy="1422" r="20" fill="#8626E2"/>
<circle cx="4005" cy="1472" r="20" fill="#8626E2"/>
<circle cx="3955" cy="2322" r="20" fill="#8626E2"/>
<circle cx="5605" cy="1222" r="20" fill="#8626E2"/>
<circle cx="5505" cy="1272" r="20" fill="#8626E2"/>
<circle cx="5405" cy="1322" r="20" fill="#8626E2"/>
<circle cx="5305" cy="1372" r="20" fill="#8626E2"/>
<circle cx="5205" cy="1422" r="20" fill="#8626E2"/>
<circle cx="5106" cy="1472" r="20" fill="#8626E2"/>
<circle cx="5005" cy="1522" r="20" fill="#8626E2"/>
<circle cx="4905" cy="1572" r="20" fill="#8626E2"/>
<circle cx="4805" cy="1622" r="20" fill="#8626E2"/>
<circle cx="4705" cy="1672" r="20" fill="#8626E2"/>
<circle cx="4605" cy="1722" r="20" fill="#8626E2"/>
<circle cx="4505" cy="1772" r="20" fill="#8626E2"/>
<circle cx="4405" cy="1822" r="20" fill="#8626E2"/>
<circle cx="4306" cy="1872" r="20" fill="#8626E2"/>
<circle cx="4205" cy="1922" r="20" fill="#8626E2"/>
<circle cx="4106" cy="1972" r="20" fill="#8626E2"/>
<circle cx="4005" cy="2022" r="20" fill="#8626E2"/>
<circle cx="4005" cy="2572" r="20" fill="#8626E2"/>
<circle cx="4105" cy="2522" r="20" fill="#8626E2"/>
<circle cx="4205" cy="2472" r="20" fill="#8626E2"/>
<circle cx="4305" cy="2422" r="20" fill="#8626E2"/>
<circle cx="4405" cy="2372" r="20" fill="#8626E2"/>
<circle cx="4505" cy="2322" r="20" fill="#8626E2"/>
<circle cx="4605" cy="2272" r="20" fill="#8626E2"/>
<circle cx="4705" cy="2222" r="20" fill="#8626E2"/>
<circle cx="4805" cy="2172" r="20" fill="#8626E2"/>
<circle cx="4905" cy="2122" r="20" fill="#8626E2"/>
<circle cx="5005" cy="2072" r="20" fill="#8626E2"/>
<circle cx="5105" cy="2022" r="20" fill="#8626E2"/>
<circle cx="5205" cy="1972" r="20" fill="#8626E2"/>
<circle cx="5305" cy="1922" r="20" fill="#8626E2"/>
<circle cx="5405" cy="1872" r="20" fill="#8626E2"/>
<circle cx="5505" cy="1822" r="20" fill="#8626E2"/>
<circle cx="5605" cy="1772" r="20" fill="#8626E2"/>
<circle cx="5555" cy="1523" r="20" fill="#8626E2"/>
<circle cx="5655" cy="1472" r="20" fill="#8626E2"/>
<circle cx="5455" cy="1573" r="20" fill="#8626E2"/>
<circle cx="5355" cy="1623" r="20" fill="#8626E2"/>
<circle cx="5255" cy="1672" r="20" fill="#8626E2"/>
<circle cx="5155" cy="1722" r="20" fill="#8626E2"/>
<circle cx="5055" cy="1772" r="20" fill="#8626E2"/>
<circle cx="4955" cy="1822" r="20" fill="#8626E2"/>
<circle cx="4855" cy="1872" r="20" fill="#8626E2"/>
<circle cx="4755" cy="1922" r="20" fill="#8626E2"/>
<circle cx="4655" cy="1972" r="20" fill="#8626E2"/>
<circle cx="4555" cy="2022" r="20" fill="#8626E2"/>
<circle cx="4455" cy="2072" r="20" fill="#8626E2"/>
<circle cx="4355" cy="2122" r="20" fill="#8626E2"/>
<circle cx="4255" cy="2172" r="20" fill="#8626E2"/>
<circle cx="4155" cy="2222" r="20" fill="#8626E2"/>
<circle cx="4055" cy="2272" r="20" fill="#8626E2"/>
<path d="M4005 347L4010.61 364.275H4028.78L4014.08 374.951L4019.69 392.225L4005 381.549L3990.31 392.225L3995.92 374.951L3981.22 364.275H3999.39L4005 347Z" fill="#8626E2"/>
<circle cx="5655" cy="2022" r="20" fill="#8626E2"/>
<circle cx="5555" cy="2072" r="20" fill="#8626E2"/>
<circle cx="5455" cy="2122" r="20" fill="#8626E2"/>
<circle cx="5355" cy="2172" r="20" fill="#8626E2"/>
<circle cx="5055" cy="2322" r="20" fill="#8626E2"/>
<circle cx="4955" cy="2372" r="20" fill="#8626E2"/>
<circle cx="4855" cy="2422" r="20" fill="#8626E2"/>
<circle cx="4755" cy="2472" r="20" fill="#8626E2"/>
<circle cx="4655" cy="2522" r="20" fill="#8626E2"/>
<circle cx="4555" cy="2572" r="20" fill="#8626E2"/>
<circle cx="4455" cy="2622" r="20" fill="#8626E2"/>
<circle cx="4356" cy="2672" r="20" fill="#8626E2"/>
<circle cx="4255" cy="2722" r="20" fill="#8626E2"/>
<circle cx="4155" cy="2772" r="20" fill="#8626E2"/>
<circle cx="4055" cy="2822" r="20" fill="#8626E2"/>
<circle cx="5155" cy="2822" r="20" fill="#8626E2"/>
<circle cx="4605" cy="2822" r="20" fill="#8626E2"/>
<circle cx="5255" cy="2772" r="20" fill="#8626E2"/>
<circle cx="5355" cy="2722" r="20" fill="#8626E2"/>
<circle cx="5455" cy="2672" r="20" fill="#8626E2"/>
<circle cx="5555" cy="2622" r="20" fill="#8626E2"/>
<circle cx="5655" cy="2572" r="20" fill="#8626E2"/>
<circle cx="5605" cy="2322" r="20" fill="#8626E2"/>
<circle cx="5505" cy="2372" r="20" fill="#8626E2"/>
<circle cx="5405" cy="2422" r="20" fill="#8626E2"/>
<circle cx="5005" cy="2622" r="20" fill="#8626E2"/>
<circle cx="5156" cy="2272" r="20" fill="#8626E2"/>
<circle cx="5305" cy="2472" r="20" fill="#8626E2"/>
<circle cx="5205" cy="2522" r="20" fill="#8626E2"/>
<circle cx="5105" cy="2572" r="20" fill="#8626E2"/>
<circle cx="4905" cy="2672" r="20" fill="#8626E2"/>
<circle cx="4805" cy="2722" r="20" fill="#8626E2"/>
<circle cx="4705" cy="2772" r="20" fill="#8626E2"/>
<circle cx="5255" cy="2222" r="20" fill="#8626E2"/>
<circle cx="520" cy="3486" r="20" fill="#F40002"/>
<circle cx="720" cy="3536" r="20" fill="#F40002"/>
<circle cx="920" cy="3586" r="20" fill="#F40002"/>
<circle cx="1120" cy="3636" r="20" fill="#F40002"/>
<circle cx="1370" cy="3536" r="20" fill="#F40002"/>
<circle cx="1570" cy="3586" r="20" fill="#F40002"/>
<circle cx="1520" cy="3736" r="20" fill="#F40002"/>
<circle cx="1420" cy="4036" r="20" fill="#F40002"/>
<circle cx="1370" cy="4186" r="20" fill="#F40002"/>
<circle cx="1320" cy="4336" r="20" fill="#F40002"/>
<circle cx="1270" cy="4486" r="20" fill="#F40002"/>
<circle cx="1220" cy="4636" r="20" fill="#F40002"/>
<circle cx="1170" cy="4786" r="20" fill="#F40002"/>
<circle cx="1120" cy="4936" r="20" fill="#F40002"/>
<circle cx="1070" cy="5086" r="20" fill="#F40002"/>
<circle cx="1020" cy="5236" r="20" fill="#F40002"/>
<circle cx="970" cy="5386" r="20" fill="#F40002"/>
<circle cx="1720" cy="3786" r="20" fill="#F40002"/>
<circle cx="1670" cy="3936" r="20" fill="#F40002"/>
<circle cx="1570" cy="4236" r="20" fill="#F40002"/>
<circle cx="1520" cy="4387" r="20" fill="#F40002"/>
<circle cx="1470" cy="4538" r="20" fill="#F40002"/>
<circle cx="1420" cy="4686" r="20" fill="#F40002"/>
<circle cx="1370" cy="4836" r="20" fill="#F40002"/>
<circle cx="1320" cy="4986" r="20" fill="#F40002"/>
<circle cx="1270" cy="5136" r="20" fill="#F40002"/>
<circle cx="1220" cy="5286" r="20" fill="#F40002"/>
<circle cx="1170" cy="5436" r="20" fill="#F40002"/>
<circle cx="1120" cy="5586" r="20" fill="#F40002"/>
<circle cx="1320" cy="5636" r="20" fill="#F40002"/>
<circle cx="1370" cy="5486" r="20" fill="#F40002"/>
<circle cx="1420" cy="5336" r="20" fill="#F40002"/>
<circle cx="1470" cy="5186" r="20" fill="#F40002"/>
<circle cx="1520" cy="5036" r="20" fill="#F40002"/>
<circle cx="1570" cy="4886" r="20" fill="#F40002"/>
<circle cx="1620" cy="4736" r="20" fill="#F40002"/>
<circle cx="1670" cy="4586" r="20" fill="#F40002"/>
<circle cx="1720" cy="4436" r="20" fill="#F40002"/>
<circle cx="1520" cy="5686" r="20" fill="#F40002"/>
<circle cx="1570" cy="5536" r="20" fill="#F40002"/>
<circle cx="1620" cy="5386" r="20" fill="#F40002"/>
<circle cx="1670" cy="5236" r="20" fill="#F40002"/>
<circle cx="1720" cy="5086" r="20" fill="#F40002"/>
<circle cx="1720" cy="5736" r="20" fill="#F40002"/>
<circle cx="1270" cy="5786" r="20" fill="#F40002"/>
<circle cx="1470" cy="5836" r="20" fill="#F40002"/>
<circle cx="1670" cy="5886" r="20" fill="#F40002"/>
<circle cx="1020" cy="5886" r="20" fill="#F40002"/>
<circle cx="70" cy="3536" r="20" fill="#F40002"/>
<circle cx="20" cy="3686" r="20" fill="#F40002"/>
<circle cx="270" cy="3585" r="20" fill="#F40002"/>
<circle cx="220" cy="3736" r="20" fill="#F40002"/>
<circle cx="170" cy="3886" r="20" fill="#F40002"/>
<circle cx="120" cy="4036" r="20" fill="#F40002"/>
<circle cx="70" cy="4186" r="20" fill="#F40002"/>
<circle cx="470" cy="3636" r="20" fill="#F40002"/>
<circle cx="420" cy="3786" r="20" fill="#F40002"/>
<circle cx="370" cy="3936" r="20" fill="#F40002"/>
<circle cx="320" cy="4086" r="20" fill="#F40002"/>
<circle cx="270" cy="4236" r="20" fill="#F40002"/>
<circle cx="220" cy="4386" r="20" fill="#F40002"/>
<circle cx="120" cy="4686" r="20" fill="#F40002"/>
<circle cx="70" cy="4836" r="20" fill="#F40002"/>
<circle cx="20" cy="4984" r="20" fill="#F40002"/>
<circle cx="20" cy="5636" r="20" fill="#F40002"/>
<circle cx="70" cy="5486" r="20" fill="#F40002"/>
<circle cx="120" cy="5336" r="20" fill="#F40002"/>
<circle cx="170" cy="5186" r="20" fill="#F40002"/>
<circle cx="220" cy="5036" r="20" fill="#F40002"/>
<circle cx="270" cy="4886" r="20" fill="#F40002"/>
<circle cx="370" cy="4586" r="20" fill="#F40002"/>
<circle cx="420" cy="4436" r="20" fill="#F40002"/>
<circle cx="470" cy="4286" r="20" fill="#F40002"/>
<circle cx="520" cy="4136" r="20" fill="#F40002"/>
<circle cx="570" cy="3986" r="20" fill="#F40002"/>
<circle cx="620" cy="3836" r="20" fill="#F40002"/>
<circle cx="670" cy="3686" r="20" fill="#F40002"/>
<circle cx="870" cy="3736" r="20" fill="#F40002"/>
<circle cx="820" cy="3886" r="20" fill="#F40002"/>
<circle cx="770" cy="4036" r="20" fill="#F40002"/>
<circle cx="720" cy="4186" r="20" fill="#F40002"/>
<circle cx="670" cy="4336" r="20" fill="#F40002"/>
<circle cx="620" cy="4486" r="20" fill="#F40002"/>
<circle cx="570" cy="4636" r="20" fill="#F40002"/>
<circle cx="520" cy="4786" r="20" fill="#F40002"/>
<circle cx="420" cy="5086" r="20" fill="#F40002"/>
<circle cx="370" cy="5236" r="20" fill="#F40002"/>
<circle cx="570" cy="5286" r="20" fill="#F40002"/>
<circle cx="520" cy="5436" r="20" fill="#F40002"/>
<circle cx="470" cy="5586" r="20" fill="#F40002"/>
<circle cx="420" cy="5736" r="20" fill="#F40002"/>
<circle cx="370" cy="5886" r="20" fill="#F40002"/>
<circle cx="320" cy="5386" r="20" fill="#F40002"/>
<circle cx="270" cy="5536" r="20" fill="#F40002"/>
<circle cx="220" cy="5686" r="20" fill="#F40002"/>
<circle cx="170" cy="5836" r="20" fill="#F40002"/>
<circle cx="1070" cy="3786" r="20" fill="#F40002"/>
<circle cx="1020" cy="3936" r="20" fill="#F40002"/>
<circle cx="970" cy="4086" r="20" fill="#F40002"/>
<circle cx="920" cy="4236" r="20" fill="#F40002"/>
<circle cx="870" cy="4386" r="20" fill="#F40002"/>
<circle cx="820" cy="4536" r="20" fill="#F40002"/>
<circle cx="770" cy="4686" r="20" fill="#F40002"/>
<circle cx="720" cy="4836" r="20" fill="#F40002"/>
<circle cx="670" cy="4986" r="20" fill="#F40002"/>
<circle cx="1270" cy="3836" r="20" fill="#F40002"/>
<circle cx="1220" cy="3986" r="20" fill="#F40002"/>
<circle cx="1170" cy="4136" r="20" fill="#F40002"/>
<circle cx="1120" cy="4286" r="20" fill="#F40002"/>
<circle cx="1070" cy="4436" r="20" fill="#F40002"/>
<circle cx="1020" cy="4586" r="20" fill="#F40002"/>
<circle cx="970" cy="4736" r="20" fill="#F40002"/>
<circle cx="920" cy="4886" r="20" fill="#F40002"/>
<circle cx="870" cy="5036" r="20" fill="#F40002"/>
<circle cx="820" cy="5186" r="20" fill="#F40002"/>
<circle cx="720" cy="5486" r="20" fill="#F40002"/>
<circle cx="870" cy="5686" r="20" fill="#F40002"/>
<circle cx="820" cy="5836" r="20" fill="#F40002"/>
<circle cx="670" cy="5636" r="20" fill="#F40002"/>
<circle cx="620" cy="5786" r="20" fill="#F40002"/>
<circle cx="570" cy="5936" r="20" fill="#F40002"/>
<circle cx="1170" cy="3486" r="15" fill="#F40002"/>
<circle cx="1320" cy="3687" r="15" fill="#F40002"/>
<circle cx="1470" cy="3886" r="15" fill="#F40002"/>
<circle cx="1620" cy="4086" r="15" fill="#F40002"/>
<circle cx="1070" cy="5736" r="15" fill="#F40002"/>
<circle cx="1220" cy="5936" r="15" fill="#F40002"/>
<circle cx="920" cy="5536" r="15" fill="#F40002"/>
<circle cx="770" cy="5336" r="15" fill="#F40002"/>
<circle cx="620" cy="5136" r="15" fill="#F40002"/>
<circle cx="470" cy="4936" r="15" fill="#F40002"/>
<circle cx="320" cy="4736" r="15" fill="#F40002"/>
<circle cx="170" cy="4536" r="15" fill="#F40002"/>
<circle cx="20" cy="4336" r="15" fill="#F40002"/>
<path d="M890.254 178.491C884.004 178.491 878.375 177.249 873.368 174.763C868.361 172.277 864.348 168.868 861.33 164.536C858.311 160.203 856.66 155.267 856.376 149.727H869.16C869.657 154.663 871.894 158.747 875.872 161.979C879.884 165.175 884.678 166.773 890.254 166.773C894.728 166.773 898.705 165.725 902.185 163.63C905.701 161.535 908.453 158.658 910.442 155.001C912.466 151.308 913.478 147.135 913.478 142.483C913.478 137.724 912.43 133.481 910.335 129.752C908.276 125.988 905.435 123.023 901.813 120.857C898.19 118.69 894.053 117.589 889.401 117.554C886.063 117.518 882.636 118.033 879.121 119.099C875.605 120.129 872.711 121.46 870.438 123.094L858.08 121.602L864.685 67.9091H921.362V79.6278H875.765L871.93 111.801H872.569C874.806 110.026 877.612 108.552 880.985 107.38C884.359 106.208 887.874 105.622 891.532 105.622C898.208 105.622 904.156 107.22 909.377 110.416C914.632 113.577 918.752 117.909 921.734 123.413C924.753 128.918 926.262 135.203 926.262 142.27C926.262 149.23 924.7 155.445 921.575 160.913C918.485 166.347 914.224 170.643 908.791 173.804C903.357 176.929 897.178 178.491 890.254 178.491Z" fill="black"/>
<path d="M2893.36 177L2942.15 80.4801V79.6278H2885.9V67.9091H2955.78V80.267L2907.2 177H2893.36Z" fill="black"/>
<path d="M4770.42 67.9091V177H4757.21V81.7585H4756.57L4729.94 99.4432V86.0199L4757.21 67.9091H4770.42ZM4840.14 67.9091V177H4826.93V81.7585H4826.3L4799.66 99.4432V86.0199L4826.93 67.9091H4840.14Z" fill="black"/>
<path d="M2849.43 3174.91V3284H2836.22V3188.76H2835.59L2808.95 3206.44V3193.02L2836.22 3174.91H2849.43ZM2884.22 3284L2933.01 3187.48V3186.63H2876.76V3174.91H2946.65V3187.27L2898.07 3284H2884.22Z" fill="black"/>
<path d="M4818.48 3174.91V3284H4805.27V3188.76H4804.63L4778 3206.44V3193.02L4805.27 3174.91H4818.48ZM4884.58 3173.42C4889.06 3173.45 4893.53 3174.31 4898.01 3175.97C4902.48 3177.64 4906.57 3180.41 4910.26 3184.28C4913.95 3188.12 4916.92 3193.36 4919.15 3200C4921.39 3206.64 4922.51 3214.97 4922.51 3224.98C4922.51 3234.67 4921.59 3243.29 4919.74 3250.81C4917.93 3258.31 4915.3 3264.63 4911.86 3269.78C4908.45 3274.93 4904.29 3278.83 4899.39 3281.5C4894.53 3284.16 4889.02 3285.49 4882.88 3285.49C4876.77 3285.49 4871.32 3284.28 4866.53 3281.87C4861.77 3279.42 4857.86 3276.03 4854.81 3271.7C4851.79 3267.33 4849.85 3262.27 4849 3256.51H4862C4863.17 3261.52 4865.5 3265.66 4868.98 3268.93C4872.49 3272.16 4877.13 3273.77 4882.88 3273.77C4891.3 3273.77 4897.94 3270.1 4902.8 3262.75C4907.7 3255.4 4910.15 3245.01 4910.15 3231.59H4909.3C4907.31 3234.57 4904.95 3237.14 4902.22 3239.31C4899.48 3241.48 4896.45 3243.14 4893.11 3244.32C4889.77 3245.49 4886.22 3246.07 4882.45 3246.07C4876.2 3246.07 4870.47 3244.53 4865.25 3241.44C4860.06 3238.31 4855.91 3234.04 4852.78 3228.6C4849.69 3223.13 4848.15 3216.88 4848.15 3209.85C4848.15 3203.18 4849.64 3197.07 4852.62 3191.53C4855.64 3185.95 4859.87 3181.51 4865.3 3178.21C4870.77 3174.91 4877.2 3173.31 4884.58 3173.42ZM4884.58 3185.14C4880.11 3185.14 4876.08 3186.25 4872.49 3188.49C4868.94 3190.69 4866.12 3193.68 4864.02 3197.44C4861.96 3201.17 4860.93 3205.31 4860.93 3209.85C4860.93 3214.4 4861.93 3218.53 4863.92 3222.26C4865.94 3225.96 4868.69 3228.9 4872.17 3231.11C4875.69 3233.27 4879.68 3234.36 4884.16 3234.36C4887.53 3234.36 4890.67 3233.7 4893.59 3232.38C4896.5 3231.03 4899.04 3229.21 4901.2 3226.9C4903.41 3224.55 4905.13 3221.91 4906.37 3218.96C4907.61 3215.98 4908.23 3212.87 4908.23 3209.64C4908.23 3205.38 4907.2 3201.38 4905.15 3197.65C4903.12 3193.93 4900.32 3190.91 4896.73 3188.6C4893.18 3186.29 4889.13 3185.14 4884.58 3185.14Z" fill="black"/>
<path d="M839.528 3174.91V3284H826.317V3188.76H825.678L799.045 3206.44V3193.02L826.317 3174.91H839.528ZM907.763 3285.49C900.732 3285.49 894.464 3284.28 888.96 3281.87C883.491 3279.45 879.141 3276.1 875.909 3271.8C872.713 3267.47 870.973 3262.44 870.689 3256.73H884.112C884.396 3260.24 885.604 3263.28 887.734 3265.84C889.865 3268.36 892.653 3270.31 896.097 3271.7C899.542 3273.08 903.359 3273.77 907.55 3273.77C912.237 3273.77 916.392 3272.96 920.014 3271.32C923.636 3269.69 926.477 3267.42 928.537 3264.5C930.597 3261.59 931.626 3258.22 931.626 3254.38C931.626 3250.37 930.632 3246.84 928.643 3243.78C926.655 3240.69 923.743 3238.28 919.908 3236.54C916.072 3234.8 911.385 3233.93 905.845 3233.93H897.109V3222.21H905.845C910.178 3222.21 913.977 3221.43 917.244 3219.87C920.547 3218.3 923.121 3216.1 924.968 3213.26C926.85 3210.42 927.791 3207.08 927.791 3203.25C927.791 3199.55 926.974 3196.34 925.341 3193.61C923.707 3190.87 921.399 3188.74 918.416 3187.21C915.469 3185.69 911.989 3184.92 907.976 3184.92C904.212 3184.92 900.661 3185.62 897.322 3187C894.02 3188.35 891.321 3190.32 889.226 3192.91C887.131 3195.47 885.994 3198.56 885.817 3202.18H873.033C873.246 3196.46 874.968 3191.46 878.2 3187.16C881.431 3182.83 885.657 3179.45 890.877 3177.04C896.133 3174.62 901.903 3173.42 908.189 3173.42C914.936 3173.42 920.724 3174.78 925.554 3177.52C930.384 3180.22 934.094 3183.79 936.687 3188.23C939.279 3192.66 940.575 3197.46 940.575 3202.61C940.575 3208.75 938.96 3213.99 935.728 3218.32C932.532 3222.65 928.182 3225.65 922.678 3227.32V3228.18C929.567 3229.31 934.947 3232.24 938.817 3236.97C942.688 3241.65 944.624 3247.46 944.624 3254.38C944.624 3260.31 943.008 3265.64 939.776 3270.36C936.58 3275.05 932.212 3278.74 926.673 3281.44C921.133 3284.14 914.83 3285.49 907.763 3285.49Z" fill="black"/>
<ellipse cx="2991.36" cy="3496" rx="20.1724" ry="20" fill="#5278FD"/>
<ellipse cx="2940.94" cy="3546" rx="20.1724" ry="20" fill="#5278FD"/>
<ellipse cx="2890.5" cy="3596" rx="20.1724" ry="20" fill="#5278FD"/>
<ellipse cx="2840.07" cy="3646" rx="20.1724" ry="20" fill="#5278FD"/>
<ellipse cx="2739.21" cy="3746" rx="20.1724" ry="20" fill="#5278FD"/>
<ellipse cx="2688.77" cy="3796" rx="20.1724" ry="20" fill="#5278FD"/>
<ellipse cx="2587.92" cy="3896" rx="20.1724" ry="20" fill="#5278FD"/>
<ellipse cx="2537.48" cy="3946" rx="20.1724" ry="20" fill="#5278FD"/>
<ellipse cx="2487.05" cy="3996" rx="20.1724" ry="20" fill="#5278FD"/>
<ellipse cx="2436.62" cy="4046" rx="20.1724" ry="20" fill="#5278FD"/>
<ellipse cx="2386.19" cy="4096" rx="20.1724" ry="20" fill="#5278FD"/>
<ellipse cx="2335.77" cy="4146" rx="20.1724" ry="20" fill="#5278FD"/>
<ellipse cx="2285.33" cy="4196" rx="20.1724" ry="20" fill="#5278FD"/>
<ellipse cx="2184.46" cy="4296" rx="20.1724" ry="20" fill="#5278FD"/>
<ellipse cx="2134.04" cy="4346" rx="20.1724" ry="20" fill="#5278FD"/>
<ellipse cx="2083.6" cy="4396" rx="20.1724" ry="20" fill="#5278FD"/>
<ellipse cx="2033.17" cy="4445" rx="20.1724" ry="20" fill="#5278FD"/>
<ellipse cx="2033.17" cy="5301" rx="20.1724" ry="20" fill="#5278FD"/>
<ellipse cx="2840.07" cy="5296" rx="20.1724" ry="20" fill="#5278FD"/>
<ellipse cx="2739.21" cy="5396" rx="20.1724" ry="20" fill="#5278FD"/>
<ellipse cx="2688.77" cy="5446" rx="20.1724" ry="20" fill="#5278FD"/>
<ellipse cx="2638.34" cy="5496" rx="20.1724" ry="20" fill="#5278FD"/>
<ellipse cx="2587.92" cy="5546" rx="20.1724" ry="20" fill="#5278FD"/>
<ellipse cx="2537.48" cy="5596" rx="20.1724" ry="20" fill="#5278FD"/>
<ellipse cx="2487.05" cy="5646" rx="20.1724" ry="20" fill="#5278FD"/>
<ellipse cx="2436.62" cy="5696" rx="20.1724" ry="20" fill="#5278FD"/>
<ellipse cx="2386.19" cy="5746" rx="20.1724" ry="20" fill="#5278FD"/>
<ellipse cx="2335.77" cy="5796" rx="20.1724" ry="20" fill="#5278FD"/>
<ellipse cx="2285.33" cy="5846" rx="20.1724" ry="20" fill="#5278FD"/>
<ellipse cx="2184.46" cy="5946" rx="20.1724" ry="20" fill="#5278FD"/>
<ellipse cx="3041.79" cy="5946" rx="20.1724" ry="20" fill="#5278FD"/>
<ellipse cx="3092.23" cy="5896" rx="20.1724" ry="20" fill="#5278FD"/>
<ellipse cx="3142.65" cy="5846" rx="20.1724" ry="20" fill="#5278FD"/>
<ellipse cx="3193.09" cy="5796" rx="20.1724" ry="20" fill="#5278FD"/>
<ellipse cx="3243.51" cy="5746" rx="20.1724" ry="20" fill="#5278FD"/>
<ellipse cx="3293.95" cy="5696" rx="20.1724" ry="20" fill="#5278FD"/>
<ellipse cx="3445.24" cy="5546" rx="20.1724" ry="20" fill="#5278FD"/>
<ellipse cx="3495.67" cy="5496" rx="20.1724" ry="20" fill="#5278FD"/>
<ellipse cx="3546.11" cy="5446" rx="20.1724" ry="20" fill="#5278FD"/>
<ellipse cx="3596.53" cy="5396" rx="20.1724" ry="20" fill="#5278FD"/>
<ellipse cx="3646.97" cy="5346" rx="20.1724" ry="20" fill="#5278FD"/>
<ellipse cx="3697.4" cy="5296" rx="20.1724" ry="20" fill="#5278FD"/>
<ellipse cx="3747.82" cy="5246" rx="20.1724" ry="20" fill="#5278FD"/>
<ellipse cx="2890.5" cy="5246" rx="20.1724" ry="20" fill="#5278FD"/>
<ellipse cx="2940.94" cy="5196" rx="20.1724" ry="20" fill="#5278FD"/>
<ellipse cx="2991.36" cy="5146" rx="20.1724" ry="20" fill="#5278FD"/>
<ellipse cx="3041.79" cy="5096" rx="20.1724" ry="20" fill="#5278FD"/>
<ellipse cx="3092.23" cy="5046" rx="20.1724" ry="20" fill="#5278FD"/>
<ellipse cx="3142.65" cy="4996" rx="20.1724" ry="20" fill="#5278FD"/>
<ellipse cx="3193.09" cy="4946" rx="20.1724" ry="20" fill="#5278FD"/>
<ellipse cx="3243.51" cy="4896" rx="20.1724" ry="20" fill="#5278FD"/>
<ellipse cx="3293.95" cy="4846" rx="20.1724" ry="20" fill="#5278FD"/>
<ellipse cx="3394.8" cy="4746" rx="20.1724" ry="20" fill="#5278FD"/>
<ellipse cx="3495.67" cy="4646" rx="20.1724" ry="20" fill="#5278FD"/>
<ellipse cx="3546.11" cy="4596" rx="20.1724" ry="20" fill="#5278FD"/>
<ellipse cx="3596.53" cy="4546" rx="20.1724" ry="20" fill="#5278FD"/>
<ellipse cx="3646.97" cy="4496" rx="20.1724" ry="20" fill="#5278FD"/>
<ellipse cx="3697.4" cy="4446" rx="20.1724" ry="20" fill="#5278FD"/>
<ellipse cx="3747.82" cy="4396" rx="20.1724" ry="20" fill="#5278FD"/>
<ellipse cx="2083.6" cy="5246" rx="20.1724" ry="20" fill="#5278FD"/>
<ellipse cx="2134.04" cy="5196" rx="20.1724" ry="20" fill="#5278FD"/>
<ellipse cx="2184.46" cy="5146" rx="20.1724" ry="20" fill="#5278FD"/>
<ellipse cx="2234.9" cy="5096" rx="20.1724" ry="20" fill="#5278FD"/>
<ellipse cx="2335.77" cy="4996" rx="20.1724" ry="20" fill="#5278FD"/>
<ellipse cx="2386.19" cy="4946" rx="20.1724" ry="20" fill="#5278FD"/>
<ellipse cx="2436.62" cy="4896" rx="20.1724" ry="20" fill="#5278FD"/>
<ellipse cx="2487.05" cy="4846" rx="20.1724" ry="20" fill="#5278FD"/>
<ellipse cx="2587.92" cy="4746" rx="20.1724" ry="20" fill="#5278FD"/>
<ellipse cx="2638.34" cy="4696" rx="20.1724" ry="20" fill="#5278FD"/>
<ellipse cx="2688.77" cy="4646" rx="20.1724" ry="20" fill="#5278FD"/>
<ellipse cx="2739.21" cy="4596" rx="20.1724" ry="20" fill="#5278FD"/>
<ellipse cx="2789.63" cy="4546" rx="20.1724" ry="20" fill="#5278FD"/>
<ellipse cx="2890.5" cy="4446" rx="20.1724" ry="20" fill="#5278FD"/>
<ellipse cx="2940.94" cy="4396" rx="20.1724" ry="20" fill="#5278FD"/>
<ellipse cx="2991.36" cy="4346" rx="20.1724" ry="20" fill="#5278FD"/>
<ellipse cx="3041.79" cy="4296" rx="20.1724" ry="20" fill="#5278FD"/>
<ellipse cx="3092.23" cy="4246" rx="20.1724" ry="20" fill="#5278FD"/>
<ellipse cx="3142.65" cy="4196" rx="20.1724" ry="20" fill="#5278FD"/>
<ellipse cx="3243.51" cy="4096" rx="20.1724" ry="20" fill="#5278FD"/>
<ellipse cx="3293.95" cy="4046" rx="20.1724" ry="20" fill="#5278FD"/>
<ellipse cx="3344.38" cy="3996" rx="20.1724" ry="20" fill="#5278FD"/>
<ellipse cx="3445.24" cy="3896" rx="20.1724" ry="20" fill="#5278FD"/>
<ellipse cx="3495.67" cy="3846" rx="20.1724" ry="20" fill="#5278FD"/>
<ellipse cx="3546.11" cy="3796" rx="20.1724" ry="20" fill="#5278FD"/>
<ellipse cx="3596.53" cy="3746" rx="20.1724" ry="20" fill="#5278FD"/>
<ellipse cx="3646.97" cy="3696" rx="20.1724" ry="20" fill="#5278FD"/>
<ellipse cx="3697.4" cy="3646" rx="20.1724" ry="20" fill="#5278FD"/>
<ellipse cx="3747.82" cy="3591" rx="20.1724" ry="20" fill="#5278FD"/>
<ellipse cx="2033.17" cy="3596" rx="20.1724" ry="20" fill="#5278FD"/>
<path d="M2134.04 3471L2139.7 3488.27H2158.02L2143.2 3498.95L2148.86 3516.23L2134.04 3505.55L2119.21 3516.23L2124.88 3498.95L2110.05 3488.27H2128.37L2134.04 3471Z" fill="#5278FD"/>
<ellipse cx="2234.9" cy="5896" rx="15.1293" ry="15" fill="#5278FD"/>
<ellipse cx="2285.33" cy="5046" rx="15.1293" ry="15" fill="#5278FD"/>
<ellipse cx="2789.63" cy="5346" rx="10.0862" ry="10" fill="#5278FD"/>
<ellipse cx="2537.48" cy="4796" rx="15.1293" ry="15" fill="#5278FD"/>
<ellipse cx="2840.07" cy="4496" rx="15.1293" ry="15" fill="#5278FD"/>
<ellipse cx="3344.38" cy="4796" rx="15.1293" ry="15" fill="#5278FD"/>
<ellipse cx="3445.24" cy="4696" rx="15.1293" ry="15" fill="#5278FD"/>
<ellipse cx="3193.09" cy="4146" rx="15.1293" ry="15" fill="#5278FD"/>
<ellipse cx="3394.8" cy="3946" rx="15.1293" ry="15" fill="#5278FD"/>
<ellipse cx="2083.6" cy="3546" rx="15.1293" ry="15" fill="#5278FD"/>
<ellipse cx="2234.9" cy="4246" rx="15.1293" ry="15" fill="#5278FD"/>
<ellipse cx="2789.63" cy="3696" rx="15.1293" ry="15" fill="#5278FD"/>
<ellipse cx="2638.34" cy="3846" rx="15.1293" ry="15" fill="#5278FD"/>
<ellipse cx="3344.38" cy="5646" rx="15.1293" ry="15" fill="#5278FD"/>
<ellipse cx="3394.8" cy="5596" rx="15.1293" ry="15" fill="#5278FD"/>
<ellipse cx="4731.64" cy="3506" rx="20.1724" ry="20" fill="#0DD65F"/>
<ellipse cx="5034.23" cy="3606" rx="20.1724" ry="20" fill="#0DD65F"/>
<ellipse cx="5186.53" cy="3656" rx="20.1724" ry="20" fill="#0DD65F"/>
<ellipse cx="5336.81" cy="3706" rx="20.1724" ry="20" fill="#0DD65F"/>
<ellipse cx="4076.04" cy="3606" rx="20.1724" ry="20" fill="#0DD65F"/>
<ellipse cx="4227.33" cy="3656" rx="20.1724" ry="20" fill="#0DD65F"/>
<ellipse cx="4378.62" cy="3706" rx="20.1724" ry="20" fill="#0DD65F"/>
<ellipse cx="4529.91" cy="3756" rx="20.1724" ry="20" fill="#0DD65F"/>
<ellipse cx="4681.21" cy="3806" rx="20.1724" ry="20" fill="#0DD65F"/>
<ellipse cx="4832.5" cy="3856" rx="20.1724" ry="20" fill="#0DD65F"/>
<ellipse cx="4982.79" cy="3906" rx="20.1724" ry="20" fill="#0DD65F"/>
<ellipse cx="5135.09" cy="3956" rx="20.1724" ry="20" fill="#0DD65F"/>
<ellipse cx="5437.67" cy="4056" rx="20.1724" ry="20" fill="#0DD65F"/>
<ellipse cx="4479.48" cy="4056" rx="20.1724" ry="20" fill="#0DD65F"/>
<ellipse cx="4630.78" cy="4106" rx="20.1724" ry="20" fill="#0DD65F"/>
<ellipse cx="4782.07" cy="4156" rx="20.1724" ry="20" fill="#0DD65F"/>
<ellipse cx="4933.36" cy="4206" rx="20.1724" ry="20" fill="#0DD65F"/>
<ellipse cx="5084.66" cy="4256" rx="20.1724" ry="20" fill="#0DD65F"/>
<ellipse cx="5235.95" cy="4306" rx="20.1724" ry="20" fill="#0DD65F"/>
<ellipse cx="5387.24" cy="4356" rx="20.1724" ry="20" fill="#0DD65F"/>
<ellipse cx="4328.19" cy="4006" rx="20.1724" ry="20" fill="#0DD65F"/>
<ellipse cx="4176.9" cy="3956" rx="20.1724" ry="20" fill="#0DD65F"/>
<ellipse cx="4025.6" cy="3906" rx="20.1724" ry="20" fill="#0DD65F"/>
<ellipse cx="3975.17" cy="4206" rx="20.1724" ry="20" fill="#0DD65F"/>
<ellipse cx="4126.46" cy="4256" rx="20.1724" ry="20" fill="#0DD65F"/>
<ellipse cx="4277.76" cy="4306" rx="20.1724" ry="20" fill="#0DD65F"/>
<ellipse cx="4429.05" cy="4351" rx="20.1724" ry="20" fill="#0DD65F"/>
<ellipse cx="4580.34" cy="4406" rx="20.1724" ry="20" fill="#0DD65F"/>
<ellipse cx="4731.64" cy="4461" rx="20.1724" ry="20" fill="#0DD65F"/>
<ellipse cx="4883.94" cy="4506" rx="20.1724" ry="20" fill="#0DD65F"/>
<ellipse cx="5034.23" cy="4556" rx="20.1724" ry="20" fill="#0DD65F"/>
<ellipse cx="5185.51" cy="4606" rx="20.1724" ry="20" fill="#0DD65F"/>
<ellipse cx="5336.81" cy="4656" rx="20.1724" ry="20" fill="#0DD65F"/>
<ellipse cx="5639.4" cy="4756" rx="20.1724" ry="20" fill="#0DD65F"/>
<ellipse cx="5588.96" cy="5056" rx="20.1724" ry="20" fill="#0DD65F"/>
<ellipse cx="5286.38" cy="4956" rx="20.1724" ry="20" fill="#0DD65F"/>
<ellipse cx="5135.09" cy="4906" rx="20.1724" ry="20" fill="#0DD65F"/>
<ellipse cx="4983.79" cy="4856" rx="20.1724" ry="20" fill="#0DD65F"/>
<ellipse cx="4832.5" cy="4806" rx="20.1724" ry="20" fill="#0DD65F"/>
<ellipse cx="4681.21" cy="4756" rx="20.1724" ry="20" fill="#0DD65F"/>
<ellipse cx="4529.91" cy="4706" rx="20.1724" ry="20" fill="#0DD65F"/>
<ellipse cx="4378.62" cy="4656" rx="20.1724" ry="20" fill="#0DD65F"/>
<ellipse cx="4227.33" cy="4606" rx="20.1724" ry="20" fill="#0DD65F"/>
<ellipse cx="4076.04" cy="4556" rx="20.1724" ry="20" fill="#0DD65F"/>
<ellipse cx="5538.53" cy="5356" rx="20.1724" ry="20" fill="#0DD65F"/>
<ellipse cx="5689.83" cy="5406" rx="20.1724" ry="20" fill="#0DD65F"/>
<ellipse cx="5488.11" cy="5656" rx="20.1724" ry="20" fill="#0DD65F"/>
<ellipse cx="5639.4" cy="5706" rx="20.1724" ry="20" fill="#0DD65F"/>
<ellipse cx="5437.67" cy="5956" rx="20.1724" ry="20" fill="#0DD65F"/>
<ellipse cx="5135.09" cy="5856" rx="20.1724" ry="20" fill="#0DD65F"/>
<ellipse cx="4983.79" cy="5806" rx="20.1724" ry="20" fill="#0DD65F"/>
<ellipse cx="4832.5" cy="5756" rx="20.1724" ry="20" fill="#0DD65F"/>
<ellipse cx="4681.21" cy="5706" rx="20.1724" ry="20" fill="#0DD65F"/>
<ellipse cx="4529.91" cy="5656" rx="20.1724" ry="20" fill="#0DD65F"/>
<ellipse cx="4378.62" cy="5606" rx="20.1724" ry="20" fill="#0DD65F"/>
<ellipse cx="4076.04" cy="5506" rx="20.1724" ry="20" fill="#0DD65F"/>
<ellipse cx="4025.6" cy="5806" rx="20.1724" ry="20" fill="#0DD65F"/>
<ellipse cx="4176.9" cy="5856" rx="20.1724" ry="20" fill="#0DD65F"/>
<ellipse cx="4479.48" cy="5956" rx="20.1724" ry="20" fill="#0DD65F"/>
<ellipse cx="3975.17" cy="5156" rx="20.1724" ry="20" fill="#0DD65F"/>
<ellipse cx="4176.9" cy="4906" rx="20.1724" ry="20" fill="#0DD65F"/>
<ellipse cx="4479.48" cy="5006" rx="20.1724" ry="20" fill="#0DD65F"/>
<ellipse cx="4277.76" cy="5256" rx="20.1724" ry="20" fill="#0DD65F"/>
<ellipse cx="4429.05" cy="5306" rx="20.1724" ry="20" fill="#0DD65F"/>
<ellipse cx="4580.34" cy="5356" rx="20.1724" ry="20" fill="#0DD65F"/>
<ellipse cx="4731.64" cy="5406" rx="20.1724" ry="20" fill="#0DD65F"/>
<ellipse cx="4882.93" cy="5456" rx="20.1724" ry="20" fill="#0DD65F"/>
<ellipse cx="5034.23" cy="5506" rx="20.1724" ry="20" fill="#0DD65F"/>
<ellipse cx="5187.54" cy="5556" rx="20.1724" ry="20" fill="#0DD65F"/>
<ellipse cx="4630.78" cy="5056" rx="20.1724" ry="20" fill="#0DD65F"/>
<ellipse cx="4782.07" cy="5106" rx="20.1724" ry="20" fill="#0DD65F"/>
<ellipse cx="5084.66" cy="5206" rx="20.1724" ry="20" fill="#0DD65F"/>
<ellipse cx="5235.95" cy="5256" rx="20.1724" ry="20" fill="#0DD65F"/>
<ellipse cx="5689.83" cy="3506" rx="15.1293" ry="15" fill="#0DD65F"/>
<ellipse cx="5488.11" cy="3756" rx="15.1293" ry="15" fill="#0DD65F"/>
<ellipse cx="5639.4" cy="3806" rx="15.1293" ry="15" fill="#0DD65F"/>
<ellipse cx="4882.93" cy="3556" rx="15.1293" ry="15" fill="#0DD65F"/>
<ellipse cx="5286.38" cy="4006" rx="15.1293" ry="15" fill="#0DD65F"/>
<ellipse cx="5538.53" cy="4406" rx="15.1293" ry="15" fill="#0DD65F"/>
<ellipse cx="5689.83" cy="4456" rx="15.1293" ry="15" fill="#0DD65F"/>
<ellipse cx="5488.11" cy="4707" rx="15.1293" ry="15" fill="#0DD65F"/>
<ellipse cx="5437.67" cy="5006" rx="15.1293" ry="15" fill="#0DD65F"/>
<ellipse cx="4933.36" cy="5156" rx="15.1293" ry="15" fill="#0DD65F"/>
<ellipse cx="4227.33" cy="5556" rx="15.1293" ry="15" fill="#0DD65F"/>
<ellipse cx="4328.19" cy="5906" rx="15.1293" ry="15" fill="#0DD65F"/>
<ellipse cx="4126.46" cy="5206" rx="15.1293" ry="15" fill="#0DD65F"/>
<ellipse cx="4025.6" cy="4856" rx="15.1293" ry="15" fill="#0DD65F"/>
<ellipse cx="4328.19" cy="4956" rx="15.1293" ry="15" fill="#0DD65F"/>
<ellipse cx="5588.97" cy="4106" rx="10.0862" ry="10" fill="#0DD65F"/>
<ellipse cx="5387.24" cy="5306" rx="15.1293" ry="15" fill="#0DD65F"/>
<ellipse cx="5286.38" cy="5906" rx="15.1293" ry="15" fill="#0DD65F"/>
<ellipse cx="5336.81" cy="5606" rx="10.0862" ry="10" fill="#0DD65F"/>
</svg>
