<svg width="5687" height="5755" viewBox="0 0 5687 5755" fill="none" xmlns="http://www.w3.org/2000/svg">
<path d="M4110 3260L4115.61 3277.27H4133.78L4119.08 3287.95L4124.69 3305.23L4110 3294.55L4095.31 3305.23L4100.92 3287.95L4086.22 3277.27H4104.39L4110 3260Z" fill="#FF00F5"/>
<circle cx="5260" cy="3285" r="20" fill="#FF00F5"/>
<circle cx="5210" cy="3385" r="20" fill="#FF00F5"/>
<circle cx="5160" cy="3485" r="20" fill="#FF00F5"/>
<circle cx="5110" cy="3585" r="20" fill="#FF00F5"/>
<circle cx="5060" cy="3685" r="20" fill="#FF00F5"/>
<circle cx="5010" cy="3785" r="20" fill="#FF00F5"/>
<circle cx="4960" cy="3885" r="20" fill="#FF00F5"/>
<circle cx="4860" cy="4085" r="20" fill="#FF00F5"/>
<circle cx="4710" cy="4385" r="20" fill="#FF00F5"/>
<circle cx="4660" cy="4485" r="20" fill="#FF00F5"/>
<circle cx="4610" cy="4585" r="20" fill="#FF00F5"/>
<circle cx="4560" cy="4685" r="20" fill="#FF00F5"/>
<circle cx="4510" cy="4785" r="20" fill="#FF00F5"/>
<circle cx="4460" cy="4890" r="20" fill="#FF00F5"/>
<circle cx="4410" cy="4985" r="20" fill="#FF00F5"/>
<circle cx="4360" cy="5085" r="20" fill="#FF00F5"/>
<circle cx="4310" cy="5185" r="20" fill="#FF00F5"/>
<circle cx="4260" cy="5285" r="20" fill="#FF00F5"/>
<circle cx="4110" cy="5585" r="20" fill="#FF00F5"/>
<circle cx="4060" cy="5685" r="20" fill="#FF00F5"/>
<circle cx="4660" cy="5635" r="20" fill="#FF00F5"/>
<circle cx="4710" cy="5535" r="20" fill="#FF00F5"/>
<circle cx="4760" cy="5435" r="20" fill="#FF00F5"/>
<circle cx="4810" cy="5335" r="20" fill="#FF00F5"/>
<circle cx="4910" cy="5135" r="20" fill="#FF00F5"/>
<circle cx="5010" cy="4935" r="20" fill="#FF00F5"/>
<circle cx="5060" cy="4835" r="20" fill="#FF00F5"/>
<circle cx="5210" cy="4535" r="20" fill="#FF00F5"/>
<circle cx="5260" cy="4435" r="20" fill="#FF00F5"/>
<circle cx="5310" cy="4335" r="20" fill="#FF00F5"/>
<circle cx="5360" cy="4235" r="20" fill="#FF00F5"/>
<circle cx="5410" cy="4135" r="20" fill="#FF00F5"/>
<circle cx="5460" cy="4035" r="20" fill="#FF00F5"/>
<circle cx="5510" cy="3935" r="20" fill="#FF00F5"/>
<circle cx="5560" cy="3835" r="20" fill="#FF00F5"/>
<circle cx="5660" cy="3635" r="20" fill="#FF00F5"/>
<circle cx="5310" cy="5585" r="20" fill="#FF00F5"/>
<circle cx="5360" cy="5485" r="20" fill="#FF00F5"/>
<circle cx="5410" cy="5385" r="20" fill="#FF00F5"/>
<circle cx="5460" cy="5285" r="20" fill="#FF00F5"/>
<circle cx="5560" cy="5085" r="20" fill="#FF00F5"/>
<circle cx="5610" cy="4985" r="20" fill="#FF00F5"/>
<circle cx="4010" cy="3485" r="20" fill="#FF00F5"/>
<circle cx="4610" cy="3435" r="20" fill="#FF00F5"/>
<circle cx="4560" cy="3535" r="20" fill="#FF00F5"/>
<circle cx="4510" cy="3635" r="20" fill="#FF00F5"/>
<circle cx="4410" cy="3835" r="20" fill="#FF00F5"/>
<circle cx="4310" cy="4035" r="20" fill="#FF00F5"/>
<circle cx="4260" cy="4135" r="20" fill="#FF00F5"/>
<circle cx="4210" cy="4235" r="20" fill="#FF00F5"/>
<circle cx="4160" cy="4335" r="20" fill="#FF00F5"/>
<circle cx="4110" cy="4435" r="20" fill="#FF00F5"/>
<circle cx="4060" cy="4535" r="20" fill="#FF00F5"/>
<circle cx="3960" cy="4735" r="20" fill="#FF00F5"/>
<circle cx="4660" cy="3335" r="15" fill="#FF00F5"/>
<circle cx="4910" cy="3985" r="15" fill="#FF00F5"/>
<circle cx="4810" cy="4185" r="15" fill="#FF00F5"/>
<circle cx="4060" cy="3385" r="15" fill="#FF00F5"/>
<circle cx="3960" cy="3585" r="15" fill="#FF00F5"/>
<circle cx="4460" cy="3735" r="15" fill="#FF00F5"/>
<circle cx="4360" cy="3935" r="15" fill="#FF00F5"/>
<circle cx="4210" cy="5385" r="15" fill="#FF00F5"/>
<circle cx="4160" cy="5485" r="15" fill="#FF00F5"/>
<circle cx="4610" cy="5735" r="15" fill="#FF00F5"/>
<circle cx="4860" cy="5235" r="15" fill="#FF00F5"/>
<circle cx="4960" cy="5035" r="15" fill="#FF00F5"/>
<circle cx="5110" cy="4735" r="15" fill="#FF00F5"/>
<circle cx="5610" cy="3735" r="15" fill="#FF00F5"/>
<circle cx="5160" cy="4635" r="15" fill="#FF00F5"/>
<circle cx="5510" cy="5185" r="15" fill="#FF00F5"/>
<circle cx="5660" cy="4885" r="15" fill="#FF00F5"/>
<circle cx="5260" cy="5685" r="10" fill="#FF00F5"/>
<circle cx="4010" cy="4635" r="10" fill="#FF00F5"/>
<circle cx="4760" cy="4285" r="10" fill="#FF00F5"/>
<rect y="275" width="50" height="2500" fill="black"/>
<rect x="250" y="275" width="25" height="2500" fill="black"/>
<rect x="500" y="275" width="50" height="2500" fill="black"/>
<rect x="750" y="275" width="50" height="2500" fill="black"/>
<rect x="1000" y="275" width="50" height="2500" fill="black"/>
<rect x="1250" y="275" width="50" height="2500" fill="black"/>
<rect x="1500" y="275" width="50" height="2500" fill="black"/>
<rect x="600" y="275" width="50" height="2500" fill="#CFCFCF"/>
<rect x="950" y="275" width="50" height="2500" fill="#CFCFCF"/>
<rect x="1300" y="275" width="50" height="2500" fill="#CFCFCF"/>
<rect x="1650" y="275" width="50" height="2500" fill="#CFCFCF"/>
<rect x="275" y="275" width="25" height="2500" fill="#CFCFCF"/>
<circle cx="2570" cy="300" r="20" fill="#8626E2"/>
<circle cx="2470" cy="350" r="20" fill="#8626E2"/>
<circle cx="2370" cy="400" r="20" fill="#8626E2"/>
<circle cx="2270" cy="450" r="20" fill="#8626E2"/>
<circle cx="2170" cy="500" r="20" fill="#8626E2"/>
<circle cx="2070" cy="550" r="20" fill="#8626E2"/>
<circle cx="1970" cy="600" r="20" fill="#8626E2"/>
<circle cx="3120" cy="300" r="20" fill="#8626E2"/>
<circle cx="3020" cy="350" r="20" fill="#8626E2"/>
<circle cx="2920" cy="400" r="20" fill="#8626E2"/>
<circle cx="2820" cy="449" r="20" fill="#8626E2"/>
<circle cx="2720" cy="500" r="20" fill="#8626E2"/>
<circle cx="2620" cy="550" r="20" fill="#8626E2"/>
<circle cx="2520" cy="600" r="20" fill="#8626E2"/>
<circle cx="2420" cy="650" r="20" fill="#8626E2"/>
<circle cx="2320" cy="700" r="20" fill="#8626E2"/>
<circle cx="2220" cy="750" r="20" fill="#8626E2"/>
<circle cx="2120" cy="800" r="20" fill="#8626E2"/>
<circle cx="2020" cy="850" r="20" fill="#8626E2"/>
<circle cx="3670" cy="300" r="20" fill="#8626E2"/>
<circle cx="3570" cy="350" r="20" fill="#8626E2"/>
<circle cx="3470" cy="400" r="20" fill="#8626E2"/>
<circle cx="3370" cy="450" r="20" fill="#8626E2"/>
<circle cx="3270" cy="501" r="20" fill="#8626E2"/>
<circle cx="3171" cy="550" r="20" fill="#8626E2"/>
<circle cx="3070" cy="600" r="20" fill="#8626E2"/>
<circle cx="2970" cy="650" r="20" fill="#8626E2"/>
<circle cx="2871" cy="700" r="20" fill="#8626E2"/>
<circle cx="2770" cy="750" r="20" fill="#8626E2"/>
<circle cx="2670" cy="800" r="20" fill="#8626E2"/>
<circle cx="2570" cy="850" r="20" fill="#8626E2"/>
<circle cx="2470" cy="900" r="20" fill="#8626E2"/>
<circle cx="2370" cy="950" r="20" fill="#8626E2"/>
<circle cx="2270" cy="1000" r="20" fill="#8626E2"/>
<circle cx="2170" cy="1050" r="20" fill="#8626E2"/>
<circle cx="2070" cy="1100" r="20" fill="#8626E2"/>
<circle cx="1970" cy="1150" r="20" fill="#8626E2"/>
<circle cx="1970" cy="1699" r="20" fill="#8626E2"/>
<circle cx="2070" cy="1650" r="20" fill="#8626E2"/>
<circle cx="2170" cy="1600" r="20" fill="#8626E2"/>
<circle cx="2270" cy="1550" r="20" fill="#8626E2"/>
<circle cx="2370" cy="1500" r="20" fill="#8626E2"/>
<circle cx="2470" cy="1450" r="20" fill="#8626E2"/>
<circle cx="2570" cy="1400" r="20" fill="#8626E2"/>
<circle cx="2670" cy="1350" r="20" fill="#8626E2"/>
<circle cx="2770" cy="1300" r="20" fill="#8626E2"/>
<circle cx="2870" cy="1250" r="20" fill="#8626E2"/>
<circle cx="2970" cy="1200" r="20" fill="#8626E2"/>
<circle cx="3070" cy="1150" r="20" fill="#8626E2"/>
<circle cx="3170" cy="1100" r="20" fill="#8626E2"/>
<circle cx="3270" cy="1050" r="20" fill="#8626E2"/>
<circle cx="3370" cy="1000" r="20" fill="#8626E2"/>
<circle cx="3470" cy="950" r="20" fill="#8626E2"/>
<circle cx="3570" cy="900" r="20" fill="#8626E2"/>
<circle cx="3670" cy="850" r="20" fill="#8626E2"/>
<circle cx="3620" cy="600" r="20" fill="#8626E2"/>
<circle cx="3520" cy="650" r="20" fill="#8626E2"/>
<circle cx="3420" cy="700" r="20" fill="#8626E2"/>
<circle cx="3320" cy="750" r="20" fill="#8626E2"/>
<circle cx="3220" cy="800" r="20" fill="#8626E2"/>
<circle cx="3120" cy="850" r="20" fill="#8626E2"/>
<circle cx="3020" cy="900" r="20" fill="#8626E2"/>
<circle cx="2920" cy="950" r="20" fill="#8626E2"/>
<circle cx="2820" cy="1000" r="20" fill="#8626E2"/>
<circle cx="2720" cy="1050" r="20" fill="#8626E2"/>
<circle cx="2620" cy="1100" r="20" fill="#8626E2"/>
<circle cx="2520" cy="1150" r="20" fill="#8626E2"/>
<circle cx="2420" cy="1200" r="20" fill="#8626E2"/>
<circle cx="2320" cy="1250" r="20" fill="#8626E2"/>
<circle cx="2220" cy="1300" r="20" fill="#8626E2"/>
<circle cx="2120" cy="1350" r="20" fill="#8626E2"/>
<circle cx="2020" cy="1400" r="20" fill="#8626E2"/>
<circle cx="1970" cy="2250" r="20" fill="#8626E2"/>
<circle cx="3620" cy="1150" r="20" fill="#8626E2"/>
<circle cx="3520" cy="1200" r="20" fill="#8626E2"/>
<circle cx="3420" cy="1250" r="20" fill="#8626E2"/>
<circle cx="3320" cy="1300" r="20" fill="#8626E2"/>
<circle cx="3220" cy="1350" r="20" fill="#8626E2"/>
<circle cx="3121" cy="1400" r="20" fill="#8626E2"/>
<circle cx="3020" cy="1450" r="20" fill="#8626E2"/>
<circle cx="2920" cy="1500" r="20" fill="#8626E2"/>
<circle cx="2820" cy="1550" r="20" fill="#8626E2"/>
<circle cx="2720" cy="1600" r="20" fill="#8626E2"/>
<circle cx="2620" cy="1650" r="20" fill="#8626E2"/>
<circle cx="2520" cy="1700" r="20" fill="#8626E2"/>
<circle cx="2420" cy="1750" r="20" fill="#8626E2"/>
<circle cx="2321" cy="1800" r="20" fill="#8626E2"/>
<circle cx="2220" cy="1850" r="20" fill="#8626E2"/>
<circle cx="2121" cy="1900" r="20" fill="#8626E2"/>
<circle cx="2020" cy="1950" r="20" fill="#8626E2"/>
<circle cx="2020" cy="2500" r="20" fill="#8626E2"/>
<circle cx="2120" cy="2450" r="20" fill="#8626E2"/>
<circle cx="2220" cy="2400" r="20" fill="#8626E2"/>
<circle cx="2320" cy="2350" r="20" fill="#8626E2"/>
<circle cx="2420" cy="2300" r="20" fill="#8626E2"/>
<circle cx="2520" cy="2250" r="20" fill="#8626E2"/>
<circle cx="2620" cy="2200" r="20" fill="#8626E2"/>
<circle cx="2720" cy="2150" r="20" fill="#8626E2"/>
<circle cx="2820" cy="2100" r="20" fill="#8626E2"/>
<circle cx="2920" cy="2050" r="20" fill="#8626E2"/>
<circle cx="3020" cy="2000" r="20" fill="#8626E2"/>
<circle cx="3120" cy="1950" r="20" fill="#8626E2"/>
<circle cx="3220" cy="1900" r="20" fill="#8626E2"/>
<circle cx="3320" cy="1850" r="20" fill="#8626E2"/>
<circle cx="3420" cy="1800" r="20" fill="#8626E2"/>
<circle cx="3520" cy="1750" r="20" fill="#8626E2"/>
<circle cx="3620" cy="1700" r="20" fill="#8626E2"/>
<circle cx="3570" cy="1451" r="20" fill="#8626E2"/>
<circle cx="3670" cy="1400" r="20" fill="#8626E2"/>
<circle cx="3470" cy="1501" r="20" fill="#8626E2"/>
<circle cx="3370" cy="1551" r="20" fill="#8626E2"/>
<circle cx="3270" cy="1600" r="20" fill="#8626E2"/>
<circle cx="3170" cy="1650" r="20" fill="#8626E2"/>
<circle cx="3070" cy="1700" r="20" fill="#8626E2"/>
<circle cx="2970" cy="1750" r="20" fill="#8626E2"/>
<circle cx="2870" cy="1800" r="20" fill="#8626E2"/>
<circle cx="2770" cy="1850" r="20" fill="#8626E2"/>
<circle cx="2670" cy="1900" r="20" fill="#8626E2"/>
<circle cx="2570" cy="1950" r="20" fill="#8626E2"/>
<circle cx="2470" cy="2000" r="20" fill="#8626E2"/>
<circle cx="2370" cy="2050" r="20" fill="#8626E2"/>
<circle cx="2270" cy="2100" r="20" fill="#8626E2"/>
<circle cx="2170" cy="2150" r="20" fill="#8626E2"/>
<circle cx="2070" cy="2200" r="20" fill="#8626E2"/>
<path d="M2020 275L2025.61 292.275H2043.78L2029.08 302.951L2034.69 320.225L2020 309.549L2005.31 320.225L2010.92 302.951L1996.22 292.275H2014.39L2020 275Z" fill="#8626E2"/>
<circle cx="3670" cy="1950" r="20" fill="#8626E2"/>
<circle cx="3570" cy="2000" r="20" fill="#8626E2"/>
<circle cx="3470" cy="2050" r="20" fill="#8626E2"/>
<circle cx="3370" cy="2100" r="20" fill="#8626E2"/>
<circle cx="3070" cy="2250" r="20" fill="#8626E2"/>
<circle cx="2970" cy="2300" r="20" fill="#8626E2"/>
<circle cx="2870" cy="2350" r="20" fill="#8626E2"/>
<circle cx="2770" cy="2400" r="20" fill="#8626E2"/>
<circle cx="2670" cy="2450" r="20" fill="#8626E2"/>
<circle cx="2570" cy="2500" r="20" fill="#8626E2"/>
<circle cx="2470" cy="2550" r="20" fill="#8626E2"/>
<circle cx="2371" cy="2600" r="20" fill="#8626E2"/>
<circle cx="2270" cy="2650" r="20" fill="#8626E2"/>
<circle cx="2170" cy="2700" r="20" fill="#8626E2"/>
<circle cx="2070" cy="2750" r="20" fill="#8626E2"/>
<circle cx="3170" cy="2750" r="20" fill="#8626E2"/>
<circle cx="2620" cy="2750" r="20" fill="#8626E2"/>
<circle cx="3270" cy="2700" r="20" fill="#8626E2"/>
<circle cx="3370" cy="2650" r="20" fill="#8626E2"/>
<circle cx="3470" cy="2600" r="20" fill="#8626E2"/>
<circle cx="3570" cy="2550" r="20" fill="#8626E2"/>
<circle cx="3670" cy="2500" r="20" fill="#8626E2"/>
<circle cx="3620" cy="2250" r="20" fill="#8626E2"/>
<circle cx="3520" cy="2300" r="20" fill="#8626E2"/>
<circle cx="3420" cy="2350" r="20" fill="#8626E2"/>
<circle cx="3020" cy="2550" r="20" fill="#8626E2"/>
<circle cx="3171" cy="2200" r="20" fill="#8626E2"/>
<circle cx="3320" cy="2400" r="20" fill="#8626E2"/>
<circle cx="3220" cy="2450" r="20" fill="#8626E2"/>
<circle cx="3120" cy="2500" r="20" fill="#8626E2"/>
<circle cx="2920" cy="2600" r="20" fill="#8626E2"/>
<circle cx="2820" cy="2650" r="20" fill="#8626E2"/>
<circle cx="2720" cy="2700" r="20" fill="#8626E2"/>
<circle cx="3270" cy="2150" r="20" fill="#8626E2"/>
<circle cx="4460" cy="320" r="20" fill="#F40002"/>
<circle cx="4660" cy="370" r="20" fill="#F40002"/>
<circle cx="4860" cy="420" r="20" fill="#F40002"/>
<circle cx="5060" cy="470" r="20" fill="#F40002"/>
<circle cx="5310" cy="370" r="20" fill="#F40002"/>
<circle cx="5510" cy="420" r="20" fill="#F40002"/>
<circle cx="5460" cy="570" r="20" fill="#F40002"/>
<circle cx="5360" cy="870" r="20" fill="#F40002"/>
<circle cx="5310" cy="1020" r="20" fill="#F40002"/>
<circle cx="5260" cy="1170" r="20" fill="#F40002"/>
<circle cx="5210" cy="1320" r="20" fill="#F40002"/>
<circle cx="5160" cy="1470" r="20" fill="#F40002"/>
<circle cx="5110" cy="1620" r="20" fill="#F40002"/>
<circle cx="5060" cy="1770" r="20" fill="#F40002"/>
<circle cx="5010" cy="1920" r="20" fill="#F40002"/>
<circle cx="4960" cy="2070" r="20" fill="#F40002"/>
<circle cx="4910" cy="2220" r="20" fill="#F40002"/>
<circle cx="5660" cy="620" r="20" fill="#F40002"/>
<circle cx="5610" cy="770" r="20" fill="#F40002"/>
<circle cx="5510" cy="1070" r="20" fill="#F40002"/>
<circle cx="5460" cy="1221" r="20" fill="#F40002"/>
<circle cx="5410" cy="1372" r="20" fill="#F40002"/>
<circle cx="5360" cy="1520" r="20" fill="#F40002"/>
<circle cx="5310" cy="1670" r="20" fill="#F40002"/>
<circle cx="5260" cy="1820" r="20" fill="#F40002"/>
<circle cx="5210" cy="1970" r="20" fill="#F40002"/>
<circle cx="5160" cy="2120" r="20" fill="#F40002"/>
<circle cx="5110" cy="2270" r="20" fill="#F40002"/>
<circle cx="5060" cy="2420" r="20" fill="#F40002"/>
<circle cx="5260" cy="2470" r="20" fill="#F40002"/>
<circle cx="5310" cy="2320" r="20" fill="#F40002"/>
<circle cx="5360" cy="2170" r="20" fill="#F40002"/>
<circle cx="5410" cy="2020" r="20" fill="#F40002"/>
<circle cx="5460" cy="1870" r="20" fill="#F40002"/>
<circle cx="5510" cy="1720" r="20" fill="#F40002"/>
<circle cx="5560" cy="1570" r="20" fill="#F40002"/>
<circle cx="5610" cy="1420" r="20" fill="#F40002"/>
<circle cx="5660" cy="1270" r="20" fill="#F40002"/>
<circle cx="5460" cy="2520" r="20" fill="#F40002"/>
<circle cx="5510" cy="2370" r="20" fill="#F40002"/>
<circle cx="5560" cy="2220" r="20" fill="#F40002"/>
<circle cx="5610" cy="2070" r="20" fill="#F40002"/>
<circle cx="5660" cy="1920" r="20" fill="#F40002"/>
<circle cx="5660" cy="2570" r="20" fill="#F40002"/>
<circle cx="5210" cy="2620" r="20" fill="#F40002"/>
<circle cx="5410" cy="2670" r="20" fill="#F40002"/>
<circle cx="5610" cy="2720" r="20" fill="#F40002"/>
<circle cx="4960" cy="2720" r="20" fill="#F40002"/>
<circle cx="4010" cy="370" r="20" fill="#F40002"/>
<circle cx="3960" cy="520" r="20" fill="#F40002"/>
<circle cx="4210" cy="419" r="20" fill="#F40002"/>
<circle cx="4160" cy="570" r="20" fill="#F40002"/>
<circle cx="4110" cy="720" r="20" fill="#F40002"/>
<circle cx="4060" cy="870" r="20" fill="#F40002"/>
<circle cx="4010" cy="1020" r="20" fill="#F40002"/>
<circle cx="4410" cy="470" r="20" fill="#F40002"/>
<circle cx="4360" cy="620" r="20" fill="#F40002"/>
<circle cx="4310" cy="770" r="20" fill="#F40002"/>
<circle cx="4260" cy="920" r="20" fill="#F40002"/>
<circle cx="4210" cy="1070" r="20" fill="#F40002"/>
<circle cx="4160" cy="1220" r="20" fill="#F40002"/>
<circle cx="4060" cy="1520" r="20" fill="#F40002"/>
<circle cx="4010" cy="1670" r="20" fill="#F40002"/>
<circle cx="3960" cy="1818" r="20" fill="#F40002"/>
<circle cx="3960" cy="2470" r="20" fill="#F40002"/>
<circle cx="4010" cy="2320" r="20" fill="#F40002"/>
<circle cx="4060" cy="2170" r="20" fill="#F40002"/>
<circle cx="4110" cy="2020" r="20" fill="#F40002"/>
<circle cx="4160" cy="1870" r="20" fill="#F40002"/>
<circle cx="4210" cy="1720" r="20" fill="#F40002"/>
<circle cx="4310" cy="1420" r="20" fill="#F40002"/>
<circle cx="4360" cy="1270" r="20" fill="#F40002"/>
<circle cx="4410" cy="1120" r="20" fill="#F40002"/>
<circle cx="4460" cy="970" r="20" fill="#F40002"/>
<circle cx="4510" cy="820" r="20" fill="#F40002"/>
<circle cx="4560" cy="670" r="20" fill="#F40002"/>
<circle cx="4610" cy="520" r="20" fill="#F40002"/>
<circle cx="4810" cy="570" r="20" fill="#F40002"/>
<circle cx="4760" cy="720" r="20" fill="#F40002"/>
<circle cx="4710" cy="870" r="20" fill="#F40002"/>
<circle cx="4660" cy="1020" r="20" fill="#F40002"/>
<circle cx="4610" cy="1170" r="20" fill="#F40002"/>
<circle cx="4560" cy="1320" r="20" fill="#F40002"/>
<circle cx="4510" cy="1470" r="20" fill="#F40002"/>
<circle cx="4460" cy="1620" r="20" fill="#F40002"/>
<circle cx="4360" cy="1920" r="20" fill="#F40002"/>
<circle cx="4310" cy="2070" r="20" fill="#F40002"/>
<circle cx="4510" cy="2120" r="20" fill="#F40002"/>
<circle cx="4460" cy="2270" r="20" fill="#F40002"/>
<circle cx="4410" cy="2420" r="20" fill="#F40002"/>
<circle cx="4360" cy="2570" r="20" fill="#F40002"/>
<circle cx="4310" cy="2720" r="20" fill="#F40002"/>
<circle cx="4260" cy="2220" r="20" fill="#F40002"/>
<circle cx="4210" cy="2370" r="20" fill="#F40002"/>
<circle cx="4160" cy="2520" r="20" fill="#F40002"/>
<circle cx="4110" cy="2670" r="20" fill="#F40002"/>
<circle cx="5010" cy="620" r="20" fill="#F40002"/>
<circle cx="4960" cy="770" r="20" fill="#F40002"/>
<circle cx="4910" cy="920" r="20" fill="#F40002"/>
<circle cx="4860" cy="1070" r="20" fill="#F40002"/>
<circle cx="4810" cy="1220" r="20" fill="#F40002"/>
<circle cx="4760" cy="1370" r="20" fill="#F40002"/>
<circle cx="4710" cy="1520" r="20" fill="#F40002"/>
<circle cx="4660" cy="1670" r="20" fill="#F40002"/>
<circle cx="4610" cy="1820" r="20" fill="#F40002"/>
<circle cx="5210" cy="670" r="20" fill="#F40002"/>
<circle cx="5160" cy="820" r="20" fill="#F40002"/>
<circle cx="5110" cy="970" r="20" fill="#F40002"/>
<circle cx="5060" cy="1120" r="20" fill="#F40002"/>
<circle cx="5010" cy="1270" r="20" fill="#F40002"/>
<circle cx="4960" cy="1420" r="20" fill="#F40002"/>
<circle cx="4910" cy="1570" r="20" fill="#F40002"/>
<circle cx="4860" cy="1720" r="20" fill="#F40002"/>
<circle cx="4810" cy="1870" r="20" fill="#F40002"/>
<circle cx="4760" cy="2020" r="20" fill="#F40002"/>
<circle cx="4660" cy="2320" r="20" fill="#F40002"/>
<circle cx="4810" cy="2520" r="20" fill="#F40002"/>
<circle cx="4760" cy="2670" r="20" fill="#F40002"/>
<circle cx="4610" cy="2470" r="20" fill="#F40002"/>
<circle cx="4560" cy="2620" r="20" fill="#F40002"/>
<circle cx="4510" cy="2770" r="20" fill="#F40002"/>
<circle cx="5110" cy="320" r="15" fill="#F40002"/>
<circle cx="5260" cy="521" r="15" fill="#F40002"/>
<circle cx="5410" cy="720" r="15" fill="#F40002"/>
<circle cx="5560" cy="920" r="15" fill="#F40002"/>
<circle cx="5010" cy="2570" r="15" fill="#F40002"/>
<circle cx="5160" cy="2770" r="15" fill="#F40002"/>
<circle cx="4860" cy="2370" r="15" fill="#F40002"/>
<circle cx="4710" cy="2170" r="15" fill="#F40002"/>
<circle cx="4560" cy="1970" r="15" fill="#F40002"/>
<circle cx="4410" cy="1770" r="15" fill="#F40002"/>
<circle cx="4260" cy="1570" r="15" fill="#F40002"/>
<circle cx="4110" cy="1370" r="15" fill="#F40002"/>
<circle cx="3960" cy="1170" r="15" fill="#F40002"/>
<circle cx="975" cy="3285" r="20" fill="#5278FD"/>
<circle cx="925" cy="3335" r="20" fill="#5278FD"/>
<circle cx="875" cy="3385" r="20" fill="#5278FD"/>
<circle cx="825" cy="3435" r="20" fill="#5278FD"/>
<circle cx="725" cy="3535" r="20" fill="#5278FD"/>
<circle cx="675" cy="3585" r="20" fill="#5278FD"/>
<circle cx="575" cy="3685" r="20" fill="#5278FD"/>
<circle cx="525" cy="3735" r="20" fill="#5278FD"/>
<circle cx="475" cy="3785" r="20" fill="#5278FD"/>
<circle cx="425" cy="3835" r="20" fill="#5278FD"/>
<circle cx="375" cy="3885" r="20" fill="#5278FD"/>
<circle cx="325" cy="3935" r="20" fill="#5278FD"/>
<circle cx="275" cy="3985" r="20" fill="#5278FD"/>
<circle cx="175" cy="4085" r="20" fill="#5278FD"/>
<circle cx="125" cy="4135" r="20" fill="#5278FD"/>
<circle cx="75" cy="4185" r="20" fill="#5278FD"/>
<circle cx="25" cy="4234" r="20" fill="#5278FD"/>
<circle cx="25" cy="5090" r="20" fill="#5278FD"/>
<circle cx="825" cy="5085" r="20" fill="#5278FD"/>
<circle cx="725" cy="5185" r="20" fill="#5278FD"/>
<circle cx="675" cy="5235" r="20" fill="#5278FD"/>
<circle cx="625" cy="5285" r="20" fill="#5278FD"/>
<circle cx="575" cy="5335" r="20" fill="#5278FD"/>
<circle cx="525" cy="5385" r="20" fill="#5278FD"/>
<circle cx="475" cy="5435" r="20" fill="#5278FD"/>
<circle cx="425" cy="5485" r="20" fill="#5278FD"/>
<circle cx="375" cy="5535" r="20" fill="#5278FD"/>
<circle cx="325" cy="5585" r="20" fill="#5278FD"/>
<circle cx="275" cy="5635" r="20" fill="#5278FD"/>
<circle cx="175" cy="5735" r="20" fill="#5278FD"/>
<circle cx="1025" cy="5735" r="20" fill="#5278FD"/>
<circle cx="1075" cy="5685" r="20" fill="#5278FD"/>
<circle cx="1125" cy="5635" r="20" fill="#5278FD"/>
<circle cx="1175" cy="5585" r="20" fill="#5278FD"/>
<circle cx="1225" cy="5535" r="20" fill="#5278FD"/>
<circle cx="1275" cy="5485" r="20" fill="#5278FD"/>
<circle cx="1425" cy="5335" r="20" fill="#5278FD"/>
<circle cx="1475" cy="5285" r="20" fill="#5278FD"/>
<circle cx="1525" cy="5235" r="20" fill="#5278FD"/>
<circle cx="1575" cy="5185" r="20" fill="#5278FD"/>
<circle cx="1625" cy="5135" r="20" fill="#5278FD"/>
<circle cx="1675" cy="5085" r="20" fill="#5278FD"/>
<circle cx="1725" cy="5035" r="20" fill="#5278FD"/>
<circle cx="875" cy="5035" r="20" fill="#5278FD"/>
<circle cx="925" cy="4985" r="20" fill="#5278FD"/>
<circle cx="975" cy="4935" r="20" fill="#5278FD"/>
<circle cx="1025" cy="4885" r="20" fill="#5278FD"/>
<circle cx="1075" cy="4835" r="20" fill="#5278FD"/>
<circle cx="1125" cy="4785" r="20" fill="#5278FD"/>
<circle cx="1175" cy="4735" r="20" fill="#5278FD"/>
<circle cx="1225" cy="4685" r="20" fill="#5278FD"/>
<circle cx="1275" cy="4635" r="20" fill="#5278FD"/>
<circle cx="1375" cy="4535" r="20" fill="#5278FD"/>
<circle cx="1475" cy="4435" r="20" fill="#5278FD"/>
<circle cx="1525" cy="4385" r="20" fill="#5278FD"/>
<circle cx="1575" cy="4335" r="20" fill="#5278FD"/>
<circle cx="1625" cy="4285" r="20" fill="#5278FD"/>
<circle cx="1675" cy="4235" r="20" fill="#5278FD"/>
<circle cx="1725" cy="4185" r="20" fill="#5278FD"/>
<circle cx="75" cy="5035" r="20" fill="#5278FD"/>
<circle cx="125" cy="4985" r="20" fill="#5278FD"/>
<circle cx="175" cy="4935" r="20" fill="#5278FD"/>
<circle cx="225" cy="4885" r="20" fill="#5278FD"/>
<circle cx="325" cy="4785" r="20" fill="#5278FD"/>
<circle cx="375" cy="4735" r="20" fill="#5278FD"/>
<circle cx="425" cy="4685" r="20" fill="#5278FD"/>
<circle cx="475" cy="4635" r="20" fill="#5278FD"/>
<circle cx="575" cy="4535" r="20" fill="#5278FD"/>
<circle cx="625" cy="4485" r="20" fill="#5278FD"/>
<circle cx="675" cy="4435" r="20" fill="#5278FD"/>
<circle cx="725" cy="4385" r="20" fill="#5278FD"/>
<circle cx="775" cy="4335" r="20" fill="#5278FD"/>
<circle cx="875" cy="4235" r="20" fill="#5278FD"/>
<circle cx="925" cy="4185" r="20" fill="#5278FD"/>
<circle cx="975" cy="4135" r="20" fill="#5278FD"/>
<circle cx="1025" cy="4085" r="20" fill="#5278FD"/>
<circle cx="1075" cy="4035" r="20" fill="#5278FD"/>
<circle cx="1125" cy="3985" r="20" fill="#5278FD"/>
<circle cx="1225" cy="3885" r="20" fill="#5278FD"/>
<circle cx="1275" cy="3835" r="20" fill="#5278FD"/>
<circle cx="1325" cy="3785" r="20" fill="#5278FD"/>
<circle cx="1425" cy="3685" r="20" fill="#5278FD"/>
<circle cx="1475" cy="3635" r="20" fill="#5278FD"/>
<circle cx="1525" cy="3585" r="20" fill="#5278FD"/>
<circle cx="1575" cy="3535" r="20" fill="#5278FD"/>
<circle cx="1625" cy="3485" r="20" fill="#5278FD"/>
<circle cx="1675" cy="3435" r="20" fill="#5278FD"/>
<circle cx="1725" cy="3380" r="20" fill="#5278FD"/>
<circle cx="25" cy="3385" r="20" fill="#5278FD"/>
<path d="M125 3260L130.613 3277.27H148.776L134.082 3287.95L139.695 3305.23L125 3294.55L110.305 3305.23L115.918 3287.95L101.224 3277.27H119.387L125 3260Z" fill="#5278FD"/>
<circle cx="225" cy="5685" r="15" fill="#5278FD"/>
<circle cx="275" cy="4835" r="15" fill="#5278FD"/>
<circle cx="775" cy="5135" r="10" fill="#5278FD"/>
<circle cx="525" cy="4585" r="15" fill="#5278FD"/>
<circle cx="825" cy="4285" r="15" fill="#5278FD"/>
<circle cx="1325" cy="4585" r="15" fill="#5278FD"/>
<circle cx="1425" cy="4485" r="15" fill="#5278FD"/>
<circle cx="1175" cy="3935" r="15" fill="#5278FD"/>
<circle cx="1375" cy="3735" r="15" fill="#5278FD"/>
<circle cx="75" cy="3335" r="15" fill="#5278FD"/>
<circle cx="225" cy="4035" r="15" fill="#5278FD"/>
<circle cx="775" cy="3485" r="15" fill="#5278FD"/>
<circle cx="625" cy="3635" r="15" fill="#5278FD"/>
<circle cx="1325" cy="5435" r="15" fill="#5278FD"/>
<circle cx="1375" cy="5385" r="15" fill="#5278FD"/>
<circle cx="2720" cy="3280" r="20" fill="#0DD65F"/>
<circle cx="3020" cy="3380" r="20" fill="#0DD65F"/>
<circle cx="3171" cy="3430" r="20" fill="#0DD65F"/>
<circle cx="3320" cy="3480" r="20" fill="#0DD65F"/>
<circle cx="2070" cy="3380" r="20" fill="#0DD65F"/>
<circle cx="2220" cy="3430" r="20" fill="#0DD65F"/>
<circle cx="2370" cy="3480" r="20" fill="#0DD65F"/>
<circle cx="2520" cy="3530" r="20" fill="#0DD65F"/>
<circle cx="2670" cy="3580" r="20" fill="#0DD65F"/>
<circle cx="2820" cy="3630" r="20" fill="#0DD65F"/>
<circle cx="2969" cy="3680" r="20" fill="#0DD65F"/>
<circle cx="3120" cy="3730" r="20" fill="#0DD65F"/>
<circle cx="3420" cy="3830" r="20" fill="#0DD65F"/>
<circle cx="2470" cy="3830" r="20" fill="#0DD65F"/>
<circle cx="2620" cy="3880" r="20" fill="#0DD65F"/>
<circle cx="2770" cy="3930" r="20" fill="#0DD65F"/>
<circle cx="2920" cy="3980" r="20" fill="#0DD65F"/>
<circle cx="3070" cy="4030" r="20" fill="#0DD65F"/>
<circle cx="3220" cy="4080" r="20" fill="#0DD65F"/>
<circle cx="3370" cy="4130" r="20" fill="#0DD65F"/>
<circle cx="2320" cy="3780" r="20" fill="#0DD65F"/>
<circle cx="2170" cy="3730" r="20" fill="#0DD65F"/>
<circle cx="2020" cy="3680" r="20" fill="#0DD65F"/>
<circle cx="1970" cy="3980" r="20" fill="#0DD65F"/>
<circle cx="2120" cy="4030" r="20" fill="#0DD65F"/>
<circle cx="2270" cy="4080" r="20" fill="#0DD65F"/>
<circle cx="2420" cy="4125" r="20" fill="#0DD65F"/>
<circle cx="2570" cy="4180" r="20" fill="#0DD65F"/>
<circle cx="2720" cy="4235" r="20" fill="#0DD65F"/>
<circle cx="2871" cy="4280" r="20" fill="#0DD65F"/>
<circle cx="3020" cy="4330" r="20" fill="#0DD65F"/>
<circle cx="3170" cy="4380" r="20" fill="#0DD65F"/>
<circle cx="3320" cy="4430" r="20" fill="#0DD65F"/>
<circle cx="3620" cy="4530" r="20" fill="#0DD65F"/>
<circle cx="3570" cy="4830" r="20" fill="#0DD65F"/>
<circle cx="3270" cy="4730" r="20" fill="#0DD65F"/>
<circle cx="3120" cy="4680" r="20" fill="#0DD65F"/>
<circle cx="2970" cy="4630" r="20" fill="#0DD65F"/>
<circle cx="2820" cy="4580" r="20" fill="#0DD65F"/>
<circle cx="2670" cy="4530" r="20" fill="#0DD65F"/>
<circle cx="2520" cy="4480" r="20" fill="#0DD65F"/>
<circle cx="2370" cy="4430" r="20" fill="#0DD65F"/>
<circle cx="2220" cy="4380" r="20" fill="#0DD65F"/>
<circle cx="2070" cy="4330" r="20" fill="#0DD65F"/>
<circle cx="3520" cy="5130" r="20" fill="#0DD65F"/>
<circle cx="3670" cy="5180" r="20" fill="#0DD65F"/>
<circle cx="3470" cy="5430" r="20" fill="#0DD65F"/>
<circle cx="3620" cy="5480" r="20" fill="#0DD65F"/>
<circle cx="3420" cy="5730" r="20" fill="#0DD65F"/>
<circle cx="3120" cy="5630" r="20" fill="#0DD65F"/>
<circle cx="2970" cy="5580" r="20" fill="#0DD65F"/>
<circle cx="2820" cy="5530" r="20" fill="#0DD65F"/>
<circle cx="2670" cy="5480" r="20" fill="#0DD65F"/>
<circle cx="2520" cy="5430" r="20" fill="#0DD65F"/>
<circle cx="2370" cy="5380" r="20" fill="#0DD65F"/>
<circle cx="2070" cy="5280" r="20" fill="#0DD65F"/>
<circle cx="2020" cy="5580" r="20" fill="#0DD65F"/>
<circle cx="2170" cy="5630" r="20" fill="#0DD65F"/>
<circle cx="2470" cy="5730" r="20" fill="#0DD65F"/>
<circle cx="1970" cy="4930" r="20" fill="#0DD65F"/>
<circle cx="2170" cy="4680" r="20" fill="#0DD65F"/>
<circle cx="2470" cy="4780" r="20" fill="#0DD65F"/>
<circle cx="2270" cy="5030" r="20" fill="#0DD65F"/>
<circle cx="2420" cy="5080" r="20" fill="#0DD65F"/>
<circle cx="2570" cy="5130" r="20" fill="#0DD65F"/>
<circle cx="2720" cy="5180" r="20" fill="#0DD65F"/>
<circle cx="2870" cy="5230" r="20" fill="#0DD65F"/>
<circle cx="3020" cy="5280" r="20" fill="#0DD65F"/>
<circle cx="3172" cy="5330" r="20" fill="#0DD65F"/>
<circle cx="2620" cy="4830" r="20" fill="#0DD65F"/>
<circle cx="2770" cy="4880" r="20" fill="#0DD65F"/>
<circle cx="3070" cy="4980" r="20" fill="#0DD65F"/>
<circle cx="3220" cy="5030" r="20" fill="#0DD65F"/>
<circle cx="3670" cy="3280" r="15" fill="#0DD65F"/>
<circle cx="3470" cy="3530" r="15" fill="#0DD65F"/>
<circle cx="3620" cy="3580" r="15" fill="#0DD65F"/>
<circle cx="2870" cy="3330" r="15" fill="#0DD65F"/>
<circle cx="3270" cy="3780" r="15" fill="#0DD65F"/>
<circle cx="3520" cy="4180" r="15" fill="#0DD65F"/>
<circle cx="3670" cy="4230" r="15" fill="#0DD65F"/>
<circle cx="3470" cy="4481" r="15" fill="#0DD65F"/>
<circle cx="3420" cy="4780" r="15" fill="#0DD65F"/>
<circle cx="2920" cy="4930" r="15" fill="#0DD65F"/>
<circle cx="2220" cy="5330" r="15" fill="#0DD65F"/>
<circle cx="2320" cy="5680" r="15" fill="#0DD65F"/>
<circle cx="2120" cy="4980" r="15" fill="#0DD65F"/>
<circle cx="2020" cy="4630" r="15" fill="#0DD65F"/>
<circle cx="2320" cy="4730" r="15" fill="#0DD65F"/>
<circle cx="3570" cy="3880" r="10" fill="#0DD65F"/>
<circle cx="3370" cy="5080" r="15" fill="#0DD65F"/>
<circle cx="3270" cy="5680" r="15" fill="#0DD65F"/>
<circle cx="3320" cy="5380" r="10" fill="#0DD65F"/>
<path d="M789.343 178.491C783.093 178.491 777.465 177.249 772.458 174.763C767.451 172.277 763.438 168.868 760.419 164.536C757.401 160.203 755.75 155.267 755.466 149.727H768.25C768.747 154.663 770.984 158.747 774.961 161.979C778.974 165.175 783.768 166.773 789.343 166.773C793.818 166.773 797.795 165.725 801.275 163.63C804.791 161.535 807.543 158.658 809.532 155.001C811.556 151.308 812.568 147.135 812.568 142.483C812.568 137.724 811.52 133.481 809.425 129.752C807.366 125.988 804.525 123.023 800.902 120.857C797.28 118.69 793.143 117.589 788.491 117.554C785.153 117.518 781.726 118.033 778.211 119.099C774.695 120.129 771.801 121.46 769.528 123.094L757.17 121.602L763.775 67.9091H820.451V79.6278H774.855L771.02 111.801H771.659C773.896 110.026 776.701 108.552 780.075 107.38C783.449 106.208 786.964 105.622 790.622 105.622C797.298 105.622 803.246 107.22 808.466 110.416C813.722 113.577 817.841 117.909 820.824 123.413C823.843 128.918 825.352 135.203 825.352 142.27C825.352 149.23 823.79 155.445 820.665 160.913C817.575 166.347 813.314 170.643 807.88 173.804C802.447 176.929 796.268 178.491 789.343 178.491ZM861.374 162.085L860.522 167.838C859.918 171.886 858.995 176.219 857.752 180.835C856.544 185.452 855.284 189.802 853.97 193.886C852.656 197.969 851.573 201.219 850.72 203.634H841.132C841.594 201.361 842.198 198.36 842.943 194.631C843.689 190.903 844.435 186.73 845.181 182.114C845.962 177.533 846.601 172.845 847.098 168.051L847.737 162.085H861.374ZM930.048 177L978.841 80.4801V79.6278H922.591V67.9091H992.477V80.267L943.898 177H930.048Z" fill="black"/>
<path d="M2822.42 67.9091V177H2809.21V81.7585H2808.57L2781.94 99.4432V86.0199L2809.21 67.9091H2822.42ZM2892.14 67.9091V177H2878.93V81.7585H2878.3L2851.66 99.4432V86.0199L2878.93 67.9091H2892.14Z" fill="black"/>
<path d="M844.435 3052.91V3162H831.225V3066.76H830.585L803.952 3084.44V3071.02L831.225 3052.91H844.435ZM879.218 3162L928.011 3065.48V3064.63H871.761V3052.91H941.647V3065.27L893.068 3162H879.218Z" fill="black"/>
<path d="M2795.48 3052.91V3162H2782.27V3066.76H2781.63L2755 3084.44V3071.02L2782.27 3052.91H2795.48ZM2861.58 3051.42C2866.06 3051.45 2870.53 3052.31 2875.01 3053.97C2879.48 3055.64 2883.57 3058.41 2887.26 3062.28C2890.95 3066.12 2893.92 3071.36 2896.15 3078C2898.39 3084.64 2899.51 3092.97 2899.51 3102.98C2899.51 3112.67 2898.59 3121.29 2896.74 3128.81C2894.93 3136.31 2892.3 3142.63 2888.86 3147.78C2885.45 3152.93 2881.29 3156.83 2876.39 3159.5C2871.53 3162.16 2866.02 3163.49 2859.88 3163.49C2853.77 3163.49 2848.32 3162.28 2843.53 3159.87C2838.77 3157.42 2834.86 3154.03 2831.81 3149.7C2828.79 3145.33 2826.85 3140.27 2826 3134.51H2839C2840.17 3139.52 2842.5 3143.66 2845.98 3146.93C2849.49 3150.16 2854.13 3151.77 2859.88 3151.77C2868.3 3151.77 2874.94 3148.1 2879.8 3140.75C2884.7 3133.4 2887.15 3123.01 2887.15 3109.59H2886.3C2884.31 3112.57 2881.95 3115.14 2879.22 3117.31C2876.48 3119.48 2873.45 3121.14 2870.11 3122.32C2866.77 3123.49 2863.22 3124.07 2859.45 3124.07C2853.2 3124.07 2847.47 3122.53 2842.25 3119.44C2837.06 3116.31 2832.91 3112.04 2829.78 3106.6C2826.69 3101.13 2825.15 3094.88 2825.15 3087.85C2825.15 3081.18 2826.64 3075.07 2829.62 3069.53C2832.64 3063.95 2836.87 3059.51 2842.3 3056.21C2847.77 3052.91 2854.2 3051.31 2861.58 3051.42ZM2861.58 3063.14C2857.11 3063.14 2853.08 3064.25 2849.49 3066.49C2845.94 3068.69 2843.12 3071.68 2841.02 3075.44C2838.96 3079.17 2837.93 3083.31 2837.93 3087.85C2837.93 3092.4 2838.93 3096.53 2840.92 3100.26C2842.94 3103.96 2845.69 3106.9 2849.17 3109.11C2852.69 3111.27 2856.68 3112.36 2861.16 3112.36C2864.53 3112.36 2867.67 3111.7 2870.59 3110.38C2873.5 3109.03 2876.04 3107.21 2878.2 3104.9C2880.41 3102.55 2882.13 3099.91 2883.37 3096.96C2884.61 3093.98 2885.23 3090.87 2885.23 3087.64C2885.23 3083.38 2884.2 3079.38 2882.15 3075.65C2880.12 3071.93 2877.32 3068.91 2873.73 3066.6C2870.18 3064.29 2866.13 3063.14 2861.58 3063.14Z" fill="black"/>
<path d="M4730.63 3135V3125.41L4766.64 3085.99C4770.86 3081.38 4774.34 3077.37 4777.08 3073.96C4779.81 3070.51 4781.84 3067.28 4783.15 3064.26C4784.5 3061.21 4785.17 3058.01 4785.17 3054.67C4785.17 3050.84 4784.25 3047.52 4782.4 3044.71C4780.59 3041.91 4778.11 3039.74 4774.95 3038.21C4771.79 3036.69 4768.24 3035.92 4764.29 3035.92C4760.1 3035.92 4756.45 3036.79 4753.32 3038.53C4750.23 3040.24 4747.83 3042.63 4746.13 3045.72C4744.46 3048.81 4743.63 3052.44 4743.63 3056.59H4731.05C4731.05 3050.2 4732.53 3044.59 4735.48 3039.76C4738.42 3034.93 4742.44 3031.16 4747.51 3028.47C4752.63 3025.77 4758.36 3024.42 4764.72 3024.42C4771.11 3024.42 4776.78 3025.77 4781.71 3028.47C4786.65 3031.16 4790.52 3034.8 4793.32 3039.39C4796.13 3043.97 4797.53 3049.06 4797.53 3054.67C4797.53 3058.69 4796.8 3062.61 4795.35 3066.45C4793.93 3070.25 4791.44 3074.49 4787.89 3079.18C4784.38 3083.83 4779.49 3089.51 4773.24 3096.22L4748.74 3122.43V3123.28H4799.45V3135H4730.63ZM4858.31 3136.49C4851.28 3136.49 4845.01 3135.28 4839.51 3132.87C4834.04 3130.45 4829.69 3127.1 4826.46 3122.8C4823.26 3118.47 4821.52 3113.44 4821.24 3107.73H4834.66C4834.94 3111.24 4836.15 3114.28 4838.28 3116.84C4840.41 3119.36 4843.2 3121.31 4846.64 3122.7C4850.09 3124.08 4853.91 3124.77 4858.1 3124.77C4862.78 3124.77 4866.94 3123.96 4870.56 3122.32C4874.18 3120.69 4877.02 3118.42 4879.08 3115.5C4881.14 3112.59 4882.17 3109.22 4882.17 3105.38C4882.17 3101.37 4881.18 3097.84 4879.19 3094.78C4877.2 3091.69 4874.29 3089.28 4870.45 3087.54C4866.62 3085.8 4861.93 3084.93 4856.39 3084.93H4847.66V3073.21H4856.39C4860.72 3073.21 4864.52 3072.43 4867.79 3070.87C4871.09 3069.3 4873.67 3067.1 4875.51 3064.26C4877.4 3061.42 4878.34 3058.08 4878.34 3054.25C4878.34 3050.55 4877.52 3047.34 4875.89 3044.61C4874.25 3041.87 4871.95 3039.74 4868.96 3038.21C4866.02 3036.69 4862.54 3035.92 4858.52 3035.92C4854.76 3035.92 4851.21 3036.62 4847.87 3038C4844.57 3039.35 4841.87 3041.32 4839.77 3043.91C4837.68 3046.47 4836.54 3049.56 4836.36 3053.18H4823.58C4823.79 3047.46 4825.51 3042.46 4828.75 3038.16C4831.98 3033.83 4836.2 3030.45 4841.42 3028.04C4846.68 3025.62 4852.45 3024.42 4858.74 3024.42C4865.48 3024.42 4871.27 3025.78 4876.1 3028.52C4880.93 3031.22 4884.64 3034.79 4887.23 3039.23C4889.83 3043.66 4891.12 3048.46 4891.12 3053.61C4891.12 3059.75 4889.51 3064.99 4886.27 3069.32C4883.08 3073.65 4878.73 3076.65 4873.22 3078.32V3079.18C4880.11 3080.31 4885.49 3083.24 4889.36 3087.97C4893.24 3092.65 4895.17 3098.46 4895.17 3105.38C4895.17 3111.31 4893.55 3116.64 4890.32 3121.36C4887.13 3126.05 4882.76 3129.74 4877.22 3132.44C4871.68 3135.14 4865.38 3136.49 4858.31 3136.49Z" fill="black"/>
<path d="M4781.53 67.9091V177H4768.32V81.7585H4767.68L4741.04 99.4432V86.0199L4768.32 67.9091H4781.53ZM4849.76 178.491C4842.73 178.491 4836.46 177.284 4830.96 174.869C4825.49 172.455 4821.14 169.099 4817.91 164.802C4814.71 160.469 4812.97 155.445 4812.69 149.727H4826.11C4826.4 153.243 4827.6 156.279 4829.73 158.836C4831.87 161.357 4834.65 163.31 4838.1 164.695C4841.54 166.08 4845.36 166.773 4849.55 166.773C4854.24 166.773 4858.39 165.956 4862.01 164.322C4865.64 162.689 4868.48 160.416 4870.54 157.504C4872.6 154.592 4873.63 151.219 4873.63 147.384C4873.63 143.371 4872.63 139.837 4870.64 136.783C4868.65 133.694 4865.74 131.279 4861.91 129.539C4858.07 127.799 4853.38 126.929 4847.85 126.929H4839.11V115.21H4847.85C4852.18 115.21 4855.98 114.429 4859.24 112.866C4862.55 111.304 4865.12 109.102 4866.97 106.261C4868.85 103.42 4869.79 100.082 4869.79 96.2472C4869.79 92.554 4868.97 89.3402 4867.34 86.6058C4865.71 83.8714 4863.4 81.7408 4860.42 80.2138C4857.47 78.6868 4853.99 77.9233 4849.98 77.9233C4846.21 77.9233 4842.66 78.6158 4839.32 80.0007C4836.02 81.3501 4833.32 83.321 4831.23 85.9134C4829.13 88.4702 4827.99 91.5597 4827.82 95.1818H4815.03C4815.25 89.4645 4816.97 84.4574 4820.2 80.1605C4823.43 75.8281 4827.66 72.4545 4832.88 70.0398C4838.13 67.625 4843.9 66.4176 4850.19 66.4176C4856.94 66.4176 4862.72 67.7848 4867.55 70.5192C4872.38 73.218 4876.09 76.7869 4878.69 81.2259C4881.28 85.6648 4882.58 90.4588 4882.58 95.608C4882.58 101.751 4880.96 106.989 4877.73 111.322C4874.53 115.654 4870.18 118.655 4864.68 120.324V121.176C4871.57 122.312 4876.95 125.242 4880.82 129.965C4884.69 134.653 4886.62 140.459 4886.62 147.384C4886.62 153.314 4885.01 158.641 4881.78 163.364C4878.58 168.051 4874.21 171.744 4868.67 174.443C4863.13 177.142 4856.83 178.491 4849.76 178.491Z" fill="black"/>
</svg>
